<svg width="0" height="0" class="hidden">
  <symbol fill="none" xmlns="http://www.w3.org/2000/svg" viewBox="0 0 100 116" id="Klogo">
    <path d="M35.1719 106.915L50 115.476L71.7935 102.895L35.1719 66.2656V106.915ZM40.5953 79.3602L62.9641 101.729L50.0077 109.208L40.603 103.777V79.3602H40.5953Z" fill="black"></path>
    <path d="M35.1719 8.56084V49.2021L71.7935 12.5805L50 0L35.1719 8.56084ZM40.5953 36.1077V11.6907L50 6.25952L62.9641 13.7388L40.5953 36.1077Z" fill="black"></path>
    <path d="M21.6094 16.3945L0 28.8676V86.6001L21.6094 99.0809V16.3945ZM16.186 89.6915L5.41577 83.478V32.0051L16.186 25.7916V89.6992V89.6915Z" fill="black"></path>
    <path d="M45.8202 57.7325C58.5311 70.4434 71.2421 83.1544 83.953 95.8654L100.001 86.5987V81.3517C92.1304 73.4812 84.2522 65.603 76.3817 57.7325C84.2522 49.8619 92.1304 41.9838 100.001 34.1133V28.8662C94.6465 25.7748 89.2998 22.691 83.9454 19.5996C71.2344 32.3106 58.5235 45.0215 45.8125 57.7325H45.8202ZM94.5008 31.95C85.9092 40.5416 77.3099 49.1409 68.7183 57.7325C77.3176 66.3317 85.9092 74.9234 94.5008 83.515L84.8505 89.0841C74.3949 78.6284 63.9469 68.1805 53.4912 57.7249C63.9469 47.2769 74.3949 36.8212 84.8505 26.3655L94.5084 31.9423L94.5008 31.95Z" fill="black"></path>
  </symbol>
</svg>