<svg width="0" height="0" class="hidden">
  <symbol fill="none" xmlns="http://www.w3.org/2000/svg" viewBox="0 0 24 24" id="red-icon">
    <path d="M0 3.84C0 1.71923 1.71923 0 3.84 0H20.16C22.2808 0 24 1.71923 24 3.84V20.16C24 22.2808 22.2808 24 20.16 24H3.84C1.71923 24 0 22.2808 0 20.16V3.84Z" fill="#E74969"></path>
    <path fill-rule="evenodd" clip-rule="evenodd" d="M13.7139 16.5223C14.7573 16.7482 15.6862 16.9493 15.6862 17.8757C15.6862 18.6577 15.0042 19.0857 13.8242 19.0857C12.6552 19.0857 12.0342 18.4627 11.9732 17.5337H10.5117C10.5602 18.9512 11.4492 20.4172 13.7507 20.4172C15.8207 20.4172 17.1847 19.3907 17.1847 17.8147C17.1847 15.8217 15.5779 15.4611 14.2101 15.1541C13.1963 14.9266 12.3137 14.7285 12.3137 13.9172C12.3137 13.1472 12.9347 12.7197 13.9452 12.7197C15.0532 12.7197 15.6257 13.4037 15.6377 14.2592H17.0867C17.0502 12.6342 15.9782 11.3877 13.9447 11.3877C12.0207 11.3877 10.8517 12.5732 10.8517 13.9537C10.8517 15.9027 12.3768 16.2328 13.7139 16.5223ZM20.4552 18.5662H18.6037V20.4177H20.4552V18.5662Z" fill="white"></path>
  </symbol>
  <symbol fill="none" xmlns="http://www.w3.org/2000/svg" viewBox="0 0 32 32" id="green-icon">
    <rect width="32" height="32" rx="16" fill="#36B37E"></rect>
    <path d="M19.043 12.457C17.5664 12.457 16.3633 11.5 14.5312 11.5C13.8477 11.5 13.2461 11.6367 12.6719 11.8555C12.7266 11.6914 12.7812 11.4453 12.7812 11.3086C12.7812 11.2812 12.7539 11.2266 12.7539 11.1992C12.7266 10.4336 12.0703 9.80469 11.3047 9.77734C10.4297 9.72266 9.71875 10.4336 9.71875 11.2812C9.71875 11.8281 9.96484 12.2656 10.375 12.5391V23.0938C10.375 23.4766 10.6484 23.75 11.0312 23.75H11.4688C11.8242 23.75 12.125 23.4766 12.125 23.0938V20.5234C12.8906 20.1953 13.8477 19.9219 15.2422 19.9219C16.7188 19.9219 17.9219 20.8789 19.7539 20.8789C21.0664 20.8789 22.1328 20.4141 23.1172 19.7578C23.3359 19.5938 23.5 19.3203 23.5 19.0469V12.375C23.5 11.7461 22.8164 11.3359 22.2422 11.582C21.3125 12.0195 20.1641 12.457 19.043 12.457Z" fill="white"></path>
  </symbol>

  <symbol fill="none" xmlns="http://www.w3.org/2000/svg" viewBox="0 0 32 32" id="blue-icon">
    <rect width="32" height="32" rx="16" fill="#3F598A"></rect>
    <path d="M19.043 12.457C17.5664 12.457 16.3633 11.5 14.5312 11.5C13.8477 11.5 13.2461 11.6367 12.6719 11.8555C12.7266 11.6914 12.7812 11.4453 12.7812 11.3086C12.7812 11.2812 12.7539 11.2266 12.7539 11.1992C12.7266 10.4336 12.0703 9.80469 11.3047 9.77734C10.4297 9.72266 9.71875 10.4336 9.71875 11.2812C9.71875 11.8281 9.96484 12.2656 10.375 12.5391V23.0938C10.375 23.4766 10.6484 23.75 11.0312 23.75H11.4688C11.8242 23.75 12.125 23.4766 12.125 23.0938V20.5234C12.8906 20.1953 13.8477 19.9219 15.2422 19.9219C16.7188 19.9219 17.9219 20.8789 19.7539 20.8789C21.0664 20.8789 22.1328 20.4141 23.1172 19.7578C23.3359 19.5938 23.5 19.3203 23.5 19.0469V12.375C23.5 11.7461 22.8164 11.3359 22.2422 11.582C21.3125 12.0195 20.1641 12.457 19.043 12.457Z" fill="white"></path>
  </symbol>

  <symbol fill="none" xmlns="http://www.w3.org/2000/svg" viewBox="0 0 24 24" id="small-gr-icon">
    <rect width="24" height="24" rx="12" fill="#36B37E"></rect>
    <path d="M13.8164 10.1836C12.7617 10.1836 11.9023 9.5 10.5938 9.5C10.1055 9.5 9.67578 9.59766 9.26562 9.75391C9.30469 9.63672 9.34375 9.46094 9.34375 9.36328C9.34375 9.34375 9.32422 9.30469 9.32422 9.28516C9.30469 8.73828 8.83594 8.28906 8.28906 8.26953C7.66406 8.23047 7.15625 8.73828 7.15625 9.34375C7.15625 9.73438 7.33203 10.0469 7.625 10.2422V17.7812C7.625 18.0547 7.82031 18.25 8.09375 18.25H8.40625C8.66016 18.25 8.875 18.0547 8.875 17.7812V15.9453C9.42188 15.7109 10.1055 15.5156 11.1016 15.5156C12.1562 15.5156 13.0156 16.1992 14.3242 16.1992C15.2617 16.1992 16.0234 15.8672 16.7266 15.3984C16.8828 15.2812 17 15.0859 17 14.8906V10.125C17 9.67578 16.5117 9.38281 16.1016 9.55859C15.4375 9.87109 14.6172 10.1836 13.8164 10.1836Z" fill="white"></path>
  </symbol>

    <symbol fill="none" xmlns="http://www.w3.org/2000/svg" viewBox="0 0 24 24" id="small-sc-icon">
    <rect width="24" height="24" rx="12" fill="#3F598A"></rect>
    <path d="M13.8164 10.1836C12.7617 10.1836 11.9023 9.5 10.5938 9.5C10.1055 9.5 9.67578 9.59766 9.26562 9.75391C9.30469 9.63672 9.34375 9.46094 9.34375 9.36328C9.34375 9.34375 9.32422 9.30469 9.32422 9.28516C9.30469 8.73828 8.83594 8.28906 8.28906 8.26953C7.66406 8.23047 7.15625 8.73828 7.15625 9.34375C7.15625 9.73438 7.33203 10.0469 7.625 10.2422V17.7812C7.625 18.0547 7.82031 18.25 8.09375 18.25H8.40625C8.66016 18.25 8.875 18.0547 8.875 17.7812V15.9453C9.42188 15.7109 10.1055 15.5156 11.1016 15.5156C12.1562 15.5156 13.0156 16.1992 14.3242 16.1992C15.2617 16.1992 16.0234 15.8672 16.7266 15.3984C16.8828 15.2812 17 15.0859 17 14.8906V10.125C17 9.67578 16.5117 9.38281 16.1016 9.55859C15.4375 9.87109 14.6172 10.1836 13.8164 10.1836Z" fill="white"></path>
  </symbol>
   <symbol fill="none" xmlns="http://www.w3.org/2000/svg" viewBox="0 0 24 24" id="small-pr-icon">
    <rect width="24" height="24" rx="12" fill="#1565D8"></rect>
    <path d="M13.8164 10.1836C12.7617 10.1836 11.9023 9.5 10.5938 9.5C10.1055 9.5 9.67578 9.59766 9.26562 9.75391C9.30469 9.63672 9.34375 9.46094 9.34375 9.36328C9.34375 9.34375 9.32422 9.30469 9.32422 9.28516C9.30469 8.73828 8.83594 8.28906 8.28906 8.26953C7.66406 8.23047 7.15625 8.73828 7.15625 9.34375C7.15625 9.73438 7.33203 10.0469 7.625 10.2422V17.7812C7.625 18.0547 7.82031 18.25 8.09375 18.25H8.40625C8.66016 18.25 8.875 18.0547 8.875 17.7812V15.9453C9.42188 15.7109 10.1055 15.5156 11.1016 15.5156C12.1562 15.5156 13.0156 16.1992 14.3242 16.1992C15.2617 16.1992 16.0234 15.8672 16.7266 15.3984C16.8828 15.2812 17 15.0859 17 14.8906V10.125C17 9.67578 16.5117 9.38281 16.1016 9.55859C15.4375 9.87109 14.6172 10.1836 13.8164 10.1836Z" fill="white"></path>
  </symbol>
    <symbol fill="none" xmlns="http://www.w3.org/2000/svg" viewBox="0 0 32 32" id="primary-icon">
    <rect width="32" height="32" rx="16" fill="#1565D8"></rect>
    <path d="M19.043 12.457C17.5664 12.457 16.3633 11.5 14.5312 11.5C13.8477 11.5 13.2461 11.6367 12.6719 11.8555C12.7266 11.6914 12.7812 11.4453 12.7812 11.3086C12.7812 11.2812 12.7539 11.2266 12.7539 11.1992C12.7266 10.4336 12.0703 9.80469 11.3047 9.77734C10.4297 9.72266 9.71875 10.4336 9.71875 11.2812C9.71875 11.8281 9.96484 12.2656 10.375 12.5391V23.0938C10.375 23.4766 10.6484 23.75 11.0312 23.75H11.4688C11.8242 23.75 12.125 23.4766 12.125 23.0938V20.5234C12.8906 20.1953 13.8477 19.9219 15.2422 19.9219C16.7188 19.9219 17.9219 20.8789 19.7539 20.8789C21.0664 20.8789 22.1328 20.4141 23.1172 19.7578C23.3359 19.5938 23.5 19.3203 23.5 19.0469V12.375C23.5 11.7461 22.8164 11.3359 22.2422 11.582C21.3125 12.0195 20.1641 12.457 19.043 12.457Z" fill="white"></path>
  </symbol>
    <symbol fill="none" xmlns="http://www.w3.org/2000/svg" viewBox="0 0 77 31" id="three-dots">
    <path fill-rule="evenodd" clip-rule="evenodd" d="M4 8C6.20914 8 8 6.20914 8 4C8 1.79086 6.20914 0 4 0C1.79086 0 0 1.79086 0 4C0 6.20914 1.79086 8 4 8Z" fill="#00B8D9"></path>
    <path fill-rule="evenodd" clip-rule="evenodd" d="M4 31C6.20914 31 8 29.2091 8 27C8 24.7909 6.20914 23 4 23C1.79086 23 0 24.7909 0 27C0 29.2091 1.79086 31 4 31Z" fill="#00B8D9"></path>
    <path fill-rule="evenodd" clip-rule="evenodd" d="M27 8C29.2091 8 31 6.20914 31 4C31 1.79086 29.2091 0 27 0C24.7909 0 23 1.79086 23 4C23 6.20914 24.7909 8 27 8Z" fill="#00B8D9"></path>
    <path fill-rule="evenodd" clip-rule="evenodd" d="M27 31C29.2091 31 31 29.2091 31 27C31 24.7909 29.2091 23 27 23C24.7909 23 23 24.7909 23 27C23 29.2091 24.7909 31 27 31Z" fill="#00B8D9"></path>
    <path fill-rule="evenodd" clip-rule="evenodd" d="M50 8C52.2091 8 54 6.20914 54 4C54 1.79086 52.2091 0 50 0C47.7909 0 46 1.79086 46 4C46 6.20914 47.7909 8 50 8Z" fill="#00B8D9"></path>
    <path fill-rule="evenodd" clip-rule="evenodd" d="M50 31C52.2091 31 54 29.2091 54 27C54 24.7909 52.2091 23 50 23C47.7909 23 46 24.7909 46 27C46 29.2091 47.7909 31 50 31Z" fill="#00B8D9"></path>
    <path fill-rule="evenodd" clip-rule="evenodd" d="M73 8C75.2091 8 77 6.20914 77 4C77 1.79086 75.2091 0 73 0C70.7909 0 69 1.79086 69 4C69 6.20914 70.7909 8 73 8Z" fill="#00B8D9"></path>
    <path fill-rule="evenodd" clip-rule="evenodd" d="M73 31C75.2091 31 77 29.2091 77 27C77 24.7909 75.2091 23 73 23C70.7909 23 69 24.7909 69 27C69 29.2091 70.7909 31 73 31Z" fill="#00B8D9"></path>
  </symbol>
    <symbol fill="none" xmlns="http://www.w3.org/2000/svg" viewBox="0 0 9 7" id="angle-down">
    <path d="M4.03516 6.40234C4.28125 6.64844 4.69141 6.64844 4.9375 6.40234L8.65625 2.68359C8.92969 2.41016 8.92969 2 8.65625 1.75391L8.05469 1.125C7.78125 0.878906 7.37109 0.878906 7.125 1.125L4.47266 3.77734L1.84766 1.125C1.60156 0.878906 1.19141 0.878906 0.917969 1.125L0.316406 1.75391C0.0429688 2 0.0429688 2.41016 0.316406 2.68359L4.03516 6.40234Z" fill="#183B56"></path>
  </symbol>

  <svg width="0" height="0" class="hidden">
  <symbol fill="none" xmlns="http://www.w3.org/2000/svg" viewBox="0 0 28 26" id="instagram">
    <path d="M13.9988 8.52597C12.568 8.52597 11.1959 9.02992 10.1842 9.92695C9.17249 10.824 8.60413 12.0406 8.60413 13.3092C8.60413 14.5778 9.17249 15.7944 10.1842 16.6915C11.1959 17.5885 12.568 18.0924 13.9988 18.0924C15.4295 18.0924 16.8017 17.5885 17.8134 16.6915C18.8251 15.7944 19.3935 14.5778 19.3935 13.3092C19.3935 12.0406 18.8251 10.824 17.8134 9.92695C16.8017 9.02992 15.4295 8.52597 13.9988 8.52597V8.52597ZM13.9988 16.4156C13.0693 16.4156 12.1779 16.0882 11.5206 15.5055C10.8634 14.9227 10.4941 14.1323 10.4941 13.3082C10.4941 12.484 10.8634 11.6936 11.5206 11.1109C12.1779 10.5281 13.0693 10.2007 13.9988 10.2007C14.9283 10.2007 15.8197 10.5281 16.477 11.1109C17.1342 11.6936 17.5035 12.484 17.5035 13.3082C17.5035 14.1323 17.1342 14.9227 16.477 15.5055C15.8197 16.0882 14.9283 16.4156 13.9988 16.4156V16.4156Z" fill="#9D9D9D"></path>
    <path d="M19.607 9.46523C20.3016 9.46523 20.8647 8.96597 20.8647 8.35011C20.8647 7.73424 20.3016 7.23499 19.607 7.23499C18.9124 7.23499 18.3494 7.73424 18.3494 8.35011C18.3494 8.96597 18.9124 9.46523 19.607 9.46523Z" fill="#9D9D9D"></path>
    <path d="M23.9552 7.21637C23.6851 6.59797 23.2723 6.03638 22.7434 5.56754C22.2144 5.09871 21.5809 4.73298 20.8833 4.49374C20.067 4.22205 19.2047 4.07515 18.333 4.05928C17.2095 4.01583 16.8537 4.00342 14.0047 4.00342C11.1557 4.00342 10.7905 4.00342 9.67632 4.05928C8.80527 4.07434 7.94354 4.22127 7.12832 4.49374C6.43058 4.7327 5.79688 5.09834 5.26788 5.5672C4.73887 6.03607 4.32625 6.59781 4.05649 7.21637C3.75001 7.94008 3.5847 8.70476 3.56765 9.47765C3.51749 10.4728 3.50232 10.7883 3.50232 13.3154C3.50232 15.8415 3.50232 16.1632 3.56765 17.1532C3.58515 17.9269 3.74965 18.6903 4.05649 19.4155C4.32701 20.0338 4.74003 20.5953 5.26916 21.0641C5.79829 21.5329 6.43189 21.8987 7.12949 22.1381C7.94316 22.4207 8.80525 22.5781 9.67865 22.6036C10.8022 22.647 11.158 22.6605 14.007 22.6605C16.856 22.6605 17.2212 22.6605 18.3353 22.6036C19.2069 22.5879 20.0693 22.4413 20.8857 22.1702C21.583 21.9304 22.2164 21.5643 22.7453 21.0954C23.2742 20.6264 23.687 20.0648 23.9575 19.4465C24.2643 18.7224 24.4288 17.959 24.4463 17.1852C24.4965 16.1901 24.5117 15.8746 24.5117 13.3475C24.5117 10.8203 24.5117 10.4997 24.4463 9.50972C24.4327 8.7259 24.2666 7.95004 23.9552 7.21637V7.21637ZM22.5342 17.0766C22.5266 17.6728 22.4039 18.2634 22.1713 18.8227C21.9961 19.225 21.7279 19.5903 21.3839 19.8951C21.0399 20.1999 20.6278 20.4375 20.174 20.5927C19.5501 20.7979 18.8911 20.9067 18.2257 20.9144C17.1173 20.9599 16.8047 20.9713 13.9627 20.9713C11.1183 20.9713 10.8278 20.9713 9.69849 20.9144C9.0334 20.9071 8.3747 20.7983 7.75132 20.5927C7.29595 20.4385 6.88215 20.2013 6.53669 19.8964C6.19123 19.5916 5.92179 19.2258 5.74582 18.8227C5.51651 18.2694 5.39385 17.6857 5.38299 17.0963C5.33282 16.1135 5.32115 15.8363 5.32115 13.3164C5.32115 10.7955 5.32115 10.5379 5.38299 9.53558C5.39053 8.93976 5.51325 8.34951 5.74582 7.79048C6.10165 6.97432 6.83082 6.33193 7.75132 6.01953C8.37501 5.81486 9.03352 5.70606 9.69849 5.69782C10.808 5.65334 11.1195 5.64093 13.9627 5.64093C16.8058 5.64093 17.0975 5.64093 18.2257 5.69782C18.8911 5.70492 19.5502 5.81375 20.174 6.01953C20.6277 6.17498 21.0398 6.41283 21.3838 6.71781C21.7278 7.02279 21.996 7.38816 22.1713 7.79048C22.4006 8.34385 22.5233 8.92749 22.5342 9.51696C22.5843 10.5007 22.5972 10.7769 22.5972 13.2978C22.5972 15.8177 22.5972 16.0887 22.547 17.0776H22.5342V17.0766Z" fill="#9D9D9D"></path>
  </symbol>
</svg>

<svg width="0" height="0" class="hidden">
  <symbol xmlns="http://www.w3.org/2000/svg" viewBox="0 0 50 50" id="github-icon">
    <path d="M17.791,46.836C18.502,46.53,19,45.823,19,45v-5.4c0-0.197,0.016-0.402,0.041-0.61C19.027,38.994,19.014,38.997,19,39 c0,0-3,0-3.6,0c-1.5,0-2.8-0.6-3.4-1.8c-0.7-1.3-1-3.5-2.8-4.7C8.9,32.3,9.1,32,9.7,32c0.6,0.1,1.9,0.9,2.7,2c0.9,1.1,1.8,2,3.4,2 c2.487,0,3.82-0.125,4.622-0.555C21.356,34.056,22.649,33,24,33v-0.025c-5.668-0.182-9.289-2.066-10.975-4.975 c-3.665,0.042-6.856,0.405-8.677,0.707c-0.058-0.327-0.108-0.656-0.151-0.987c1.797-0.296,4.843-0.647,8.345-0.714 c-0.112-0.276-0.209-0.559-0.291-0.849c-3.511-0.178-6.541-0.039-8.187,0.097c-0.02-0.332-0.047-0.663-0.051-0.999 c1.649-0.135,4.597-0.27,8.018-0.111c-0.079-0.5-0.13-1.011-0.13-1.543c0-1.7,0.6-3.5,1.7-5c-0.5-1.7-1.2-5.3,0.2-6.6 c2.7,0,4.6,1.3,5.5,2.1C21,13.4,22.9,13,25,13s4,0.4,5.6,1.1c0.9-0.8,2.8-2.1,5.5-2.1c1.5,1.4,0.7,5,0.2,6.6c1.1,1.5,1.7,3.2,1.6,5 c0,0.484-0.045,0.951-0.11,1.409c3.499-0.172,6.527-0.034,8.204,0.102c-0.002,0.337-0.033,0.666-0.051,0.999 c-1.671-0.138-4.775-0.28-8.359-0.089c-0.089,0.336-0.197,0.663-0.325,0.98c3.546,0.046,6.665,0.389,8.548,0.689 c-0.043,0.332-0.093,0.661-0.151,0.987c-1.912-0.306-5.171-0.664-8.879-0.682C35.112,30.873,31.557,32.75,26,32.969V33 c2.6,0,5,3.9,5,6.6V45c0,0.823,0.498,1.53,1.209,1.836C41.37,43.804,48,35.164,48,25C48,12.318,37.683,2,25,2S2,12.318,2,25 C2,35.164,8.63,43.804,17.791,46.836z"></path>
  </symbol>
</svg>
<svg width="0" height="0" class="hidden">
  <symbol version="1.1" id="linkedin-svgrepo-com" xmlns="http://www.w3.org/2000/svg" xmlns:xlink="http://www.w3.org/1999/xlink" enable-background="new 0 0 32 32" xml:space="preserve" viewBox="0 0 32 32">
    <g>
      <path fill="#808184" d="M12.5,12h-3C9.224,12,9,12.224,9,12.5v11C9,23.776,9.224,24,9.5,24h3c0.276,0,0.5-0.224,0.5-0.5v-11
		C13,12.224,12.776,12,12.5,12z M12,23h-2V13h2V23z"></path>
      <path fill="#808184" d="M11,7C9.897,7,9,7.897,9,9s0.897,2,2,2s2-0.897,2-2S12.103,7,11,7z M11,10c-0.552,0-1-0.449-1-1
		s0.448-1,1-1s1,0.449,1,1S11.552,10,11,10z"></path>
      <path fill="#808184" d="M19.515,11.986c-0.534,0-1.097,0.119-1.554,0.32C17.886,12.126,17.707,12,17.5,12h-3
		c-0.276,0-0.5,0.224-0.5,0.5v11c0,0.276,0.224,0.5,0.5,0.5h3c0.276,0,0.5-0.224,0.5-0.5l-0.002-6.661
		c0-0.003-0.012-0.336,0.2-0.565C18.365,16.092,18.65,16,19.044,16C19.696,16,20,16.279,20,16.879V23.5c0,0.276,0.224,0.5,0.5,0.5h3
		c0.276,0,0.5-0.224,0.5-0.5v-6.842C24,13.21,21.584,11.986,19.515,11.986z M23,23h-2v-6.121C21,15.72,20.251,15,19.044,15
		c-0.684,0-1.216,0.2-1.581,0.595c-0.507,0.549-0.468,1.246-0.463,1.284V23h-2V13h2v0.355c0,0.276,0.224,0.5,0.5,0.5
		c0.245,0,0.448-0.176,0.491-0.408c0.134-0.146,0.722-0.46,1.523-0.46c0.817,0,3.485,0.265,3.485,3.671V23z"></path>
      <path fill="#808184" d="M16-0.035C7.158-0.035-0.034,7.159-0.034,16S7.158,32.035,16,32.035S32.034,24.841,32.034,16
		S24.842-0.035,16-0.035z M16,30.965C7.748,30.965,1.034,24.252,1.034,16S7.748,1.035,16,1.035S30.966,7.748,30.966,16
		S24.252,30.965,16,30.965z"></path>
    </g>
  </symbol>
</svg>
<svg width="0" height="0" class="hidden">
  <symbol fill="none" xmlns="http://www.w3.org/2000/svg" viewBox="0 0 110 7" id="line-decoration">
    <path d="M109.887 3.30814L107 0.421385L104.113 3.30814L107 6.19489L109.887 3.30814ZM0 3.80814H107V2.80814H0V3.80814Z" fill="#3e7742"></path>
  </symbol>
</svg>
  

  
</svg>