<svg width="0" height="0" class="hidden">
  <symbol fill="none" xmlns="http://www.w3.org/2000/svg" viewBox="0 0 24 24" id="red-icon">
    <path d="M0 3.84C0 1.71923 1.71923 0 3.84 0H20.16C22.2808 0 24 1.71923 24 3.84V20.16C24 22.2808 22.2808 24 20.16 24H3.84C1.71923 24 0 22.2808 0 20.16V3.84Z" fill="#E74969"></path>
    <path fill-rule="evenodd" clip-rule="evenodd" d="M13.7139 16.5223C14.7573 16.7482 15.6862 16.9493 15.6862 17.8757C15.6862 18.6577 15.0042 19.0857 13.8242 19.0857C12.6552 19.0857 12.0342 18.4627 11.9732 17.5337H10.5117C10.5602 18.9512 11.4492 20.4172 13.7507 20.4172C15.8207 20.4172 17.1847 19.3907 17.1847 17.8147C17.1847 15.8217 15.5779 15.4611 14.2101 15.1541C13.1963 14.9266 12.3137 14.7285 12.3137 13.9172C12.3137 13.1472 12.9347 12.7197 13.9452 12.7197C15.0532 12.7197 15.6257 13.4037 15.6377 14.2592H17.0867C17.0502 12.6342 15.9782 11.3877 13.9447 11.3877C12.0207 11.3877 10.8517 12.5732 10.8517 13.9537C10.8517 15.9027 12.3768 16.2328 13.7139 16.5223ZM20.4552 18.5662H18.6037V20.4177H20.4552V18.5662Z" fill="white"></path>
  </symbol>
  <symbol fill="none" xmlns="http://www.w3.org/2000/svg" viewBox="0 0 32 32" id="green-icon">
    <rect width="32" height="32" rx="16" fill="#36B37E"></rect>
    <path d="M19.043 12.457C17.5664 12.457 16.3633 11.5 14.5312 11.5C13.8477 11.5 13.2461 11.6367 12.6719 11.8555C12.7266 11.6914 12.7812 11.4453 12.7812 11.3086C12.7812 11.2812 12.7539 11.2266 12.7539 11.1992C12.7266 10.4336 12.0703 9.80469 11.3047 9.77734C10.4297 9.72266 9.71875 10.4336 9.71875 11.2812C9.71875 11.8281 9.96484 12.2656 10.375 12.5391V23.0938C10.375 23.4766 10.6484 23.75 11.0312 23.75H11.4688C11.8242 23.75 12.125 23.4766 12.125 23.0938V20.5234C12.8906 20.1953 13.8477 19.9219 15.2422 19.9219C16.7188 19.9219 17.9219 20.8789 19.7539 20.8789C21.0664 20.8789 22.1328 20.4141 23.1172 19.7578C23.3359 19.5938 23.5 19.3203 23.5 19.0469V12.375C23.5 11.7461 22.8164 11.3359 22.2422 11.582C21.3125 12.0195 20.1641 12.457 19.043 12.457Z" fill="white"></path>
  </symbol>

  <symbol fill="none" xmlns="http://www.w3.org/2000/svg" viewBox="0 0 32 32" id="blue-icon">
    <rect width="32" height="32" rx="16" fill="#3F598A"></rect>
    <path d="M19.043 12.457C17.5664 12.457 16.3633 11.5 14.5312 11.5C13.8477 11.5 13.2461 11.6367 12.6719 11.8555C12.7266 11.6914 12.7812 11.4453 12.7812 11.3086C12.7812 11.2812 12.7539 11.2266 12.7539 11.1992C12.7266 10.4336 12.0703 9.80469 11.3047 9.77734C10.4297 9.72266 9.71875 10.4336 9.71875 11.2812C9.71875 11.8281 9.96484 12.2656 10.375 12.5391V23.0938C10.375 23.4766 10.6484 23.75 11.0312 23.75H11.4688C11.8242 23.75 12.125 23.4766 12.125 23.0938V20.5234C12.8906 20.1953 13.8477 19.9219 15.2422 19.9219C16.7188 19.9219 17.9219 20.8789 19.7539 20.8789C21.0664 20.8789 22.1328 20.4141 23.1172 19.7578C23.3359 19.5938 23.5 19.3203 23.5 19.0469V12.375C23.5 11.7461 22.8164 11.3359 22.2422 11.582C21.3125 12.0195 20.1641 12.457 19.043 12.457Z" fill="white"></path>
  </symbol>

  <symbol fill="none" xmlns="http://www.w3.org/2000/svg" viewBox="0 0 24 24" id="small-gr-icon">
    <rect width="24" height="24" rx="12" fill="#36B37E"></rect>
    <path d="M13.8164 10.1836C12.7617 10.1836 11.9023 9.5 10.5938 9.5C10.1055 9.5 9.67578 9.59766 9.26562 9.75391C9.30469 9.63672 9.34375 9.46094 9.34375 9.36328C9.34375 9.34375 9.32422 9.30469 9.32422 9.28516C9.30469 8.73828 8.83594 8.28906 8.28906 8.26953C7.66406 8.23047 7.15625 8.73828 7.15625 9.34375C7.15625 9.73438 7.33203 10.0469 7.625 10.2422V17.7812C7.625 18.0547 7.82031 18.25 8.09375 18.25H8.40625C8.66016 18.25 8.875 18.0547 8.875 17.7812V15.9453C9.42188 15.7109 10.1055 15.5156 11.1016 15.5156C12.1562 15.5156 13.0156 16.1992 14.3242 16.1992C15.2617 16.1992 16.0234 15.8672 16.7266 15.3984C16.8828 15.2812 17 15.0859 17 14.8906V10.125C17 9.67578 16.5117 9.38281 16.1016 9.55859C15.4375 9.87109 14.6172 10.1836 13.8164 10.1836Z" fill="white"></path>
  </symbol>

    <symbol fill="none" xmlns="http://www.w3.org/2000/svg" viewBox="0 0 24 24" id="small-sc-icon">
    <rect width="24" height="24" rx="12" fill="#3F598A"></rect>
    <path d="M13.8164 10.1836C12.7617 10.1836 11.9023 9.5 10.5938 9.5C10.1055 9.5 9.67578 9.59766 9.26562 9.75391C9.30469 9.63672 9.34375 9.46094 9.34375 9.36328C9.34375 9.34375 9.32422 9.30469 9.32422 9.28516C9.30469 8.73828 8.83594 8.28906 8.28906 8.26953C7.66406 8.23047 7.15625 8.73828 7.15625 9.34375C7.15625 9.73438 7.33203 10.0469 7.625 10.2422V17.7812C7.625 18.0547 7.82031 18.25 8.09375 18.25H8.40625C8.66016 18.25 8.875 18.0547 8.875 17.7812V15.9453C9.42188 15.7109 10.1055 15.5156 11.1016 15.5156C12.1562 15.5156 13.0156 16.1992 14.3242 16.1992C15.2617 16.1992 16.0234 15.8672 16.7266 15.3984C16.8828 15.2812 17 15.0859 17 14.8906V10.125C17 9.67578 16.5117 9.38281 16.1016 9.55859C15.4375 9.87109 14.6172 10.1836 13.8164 10.1836Z" fill="white"></path>
  </symbol>
   <symbol fill="none" xmlns="http://www.w3.org/2000/svg" viewBox="0 0 24 24" id="small-pr-icon">
    <rect width="24" height="24" rx="12" fill="#1565D8"></rect>
    <path d="M13.8164 10.1836C12.7617 10.1836 11.9023 9.5 10.5938 9.5C10.1055 9.5 9.67578 9.59766 9.26562 9.75391C9.30469 9.63672 9.34375 9.46094 9.34375 9.36328C9.34375 9.34375 9.32422 9.30469 9.32422 9.28516C9.30469 8.73828 8.83594 8.28906 8.28906 8.26953C7.66406 8.23047 7.15625 8.73828 7.15625 9.34375C7.15625 9.73438 7.33203 10.0469 7.625 10.2422V17.7812C7.625 18.0547 7.82031 18.25 8.09375 18.25H8.40625C8.66016 18.25 8.875 18.0547 8.875 17.7812V15.9453C9.42188 15.7109 10.1055 15.5156 11.1016 15.5156C12.1562 15.5156 13.0156 16.1992 14.3242 16.1992C15.2617 16.1992 16.0234 15.8672 16.7266 15.3984C16.8828 15.2812 17 15.0859 17 14.8906V10.125C17 9.67578 16.5117 9.38281 16.1016 9.55859C15.4375 9.87109 14.6172 10.1836 13.8164 10.1836Z" fill="white"></path>
  </symbol>
    <symbol fill="none" xmlns="http://www.w3.org/2000/svg" viewBox="0 0 32 32" id="primary-icon">
    <rect width="32" height="32" rx="16" fill="#1565D8"></rect>
    <path d="M19.043 12.457C17.5664 12.457 16.3633 11.5 14.5312 11.5C13.8477 11.5 13.2461 11.6367 12.6719 11.8555C12.7266 11.6914 12.7812 11.4453 12.7812 11.3086C12.7812 11.2812 12.7539 11.2266 12.7539 11.1992C12.7266 10.4336 12.0703 9.80469 11.3047 9.77734C10.4297 9.72266 9.71875 10.4336 9.71875 11.2812C9.71875 11.8281 9.96484 12.2656 10.375 12.5391V23.0938C10.375 23.4766 10.6484 23.75 11.0312 23.75H11.4688C11.8242 23.75 12.125 23.4766 12.125 23.0938V20.5234C12.8906 20.1953 13.8477 19.9219 15.2422 19.9219C16.7188 19.9219 17.9219 20.8789 19.7539 20.8789C21.0664 20.8789 22.1328 20.4141 23.1172 19.7578C23.3359 19.5938 23.5 19.3203 23.5 19.0469V12.375C23.5 11.7461 22.8164 11.3359 22.2422 11.582C21.3125 12.0195 20.1641 12.457 19.043 12.457Z" fill="white"></path>
  </symbol>
    <symbol fill="none" xmlns="http://www.w3.org/2000/svg" viewBox="0 0 77 31" id="three-dots">
    <path fill-rule="evenodd" clip-rule="evenodd" d="M4 8C6.20914 8 8 6.20914 8 4C8 1.79086 6.20914 0 4 0C1.79086 0 0 1.79086 0 4C0 6.20914 1.79086 8 4 8Z" fill="#00B8D9"></path>
    <path fill-rule="evenodd" clip-rule="evenodd" d="M4 31C6.20914 31 8 29.2091 8 27C8 24.7909 6.20914 23 4 23C1.79086 23 0 24.7909 0 27C0 29.2091 1.79086 31 4 31Z" fill="#00B8D9"></path>
    <path fill-rule="evenodd" clip-rule="evenodd" d="M27 8C29.2091 8 31 6.20914 31 4C31 1.79086 29.2091 0 27 0C24.7909 0 23 1.79086 23 4C23 6.20914 24.7909 8 27 8Z" fill="#00B8D9"></path>
    <path fill-rule="evenodd" clip-rule="evenodd" d="M27 31C29.2091 31 31 29.2091 31 27C31 24.7909 29.2091 23 27 23C24.7909 23 23 24.7909 23 27C23 29.2091 24.7909 31 27 31Z" fill="#00B8D9"></path>
    <path fill-rule="evenodd" clip-rule="evenodd" d="M50 8C52.2091 8 54 6.20914 54 4C54 1.79086 52.2091 0 50 0C47.7909 0 46 1.79086 46 4C46 6.20914 47.7909 8 50 8Z" fill="#00B8D9"></path>
    <path fill-rule="evenodd" clip-rule="evenodd" d="M50 31C52.2091 31 54 29.2091 54 27C54 24.7909 52.2091 23 50 23C47.7909 23 46 24.7909 46 27C46 29.2091 47.7909 31 50 31Z" fill="#00B8D9"></path>
    <path fill-rule="evenodd" clip-rule="evenodd" d="M73 8C75.2091 8 77 6.20914 77 4C77 1.79086 75.2091 0 73 0C70.7909 0 69 1.79086 69 4C69 6.20914 70.7909 8 73 8Z" fill="#00B8D9"></path>
    <path fill-rule="evenodd" clip-rule="evenodd" d="M73 31C75.2091 31 77 29.2091 77 27C77 24.7909 75.2091 23 73 23C70.7909 23 69 24.7909 69 27C69 29.2091 70.7909 31 73 31Z" fill="#00B8D9"></path>
  </symbol>
    <symbol fill="none" xmlns="http://www.w3.org/2000/svg" viewBox="0 0 9 7" id="angle-down">
    <path d="M4.03516 6.40234C4.28125 6.64844 4.69141 6.64844 4.9375 6.40234L8.65625 2.68359C8.92969 2.41016 8.92969 2 8.65625 1.75391L8.05469 1.125C7.78125 0.878906 7.37109 0.878906 7.125 1.125L4.47266 3.77734L1.84766 1.125C1.60156 0.878906 1.19141 0.878906 0.917969 1.125L0.316406 1.75391C0.0429688 2 0.0429688 2.41016 0.316406 2.68359L4.03516 6.40234Z" fill="#183B56"></path>
  </symbol>

  <svg width="0" height="0" class="hidden">
  <symbol fill="none" xmlns="http://www.w3.org/2000/svg" viewBox="0 0 28 26" id="instagram">
    <path d="M13.9988 8.52597C12.568 8.52597 11.1959 9.02992 10.1842 9.92695C9.17249 10.824 8.60413 12.0406 8.60413 13.3092C8.60413 14.5778 9.17249 15.7944 10.1842 16.6915C11.1959 17.5885 12.568 18.0924 13.9988 18.0924C15.4295 18.0924 16.8017 17.5885 17.8134 16.6915C18.8251 15.7944 19.3935 14.5778 19.3935 13.3092C19.3935 12.0406 18.8251 10.824 17.8134 9.92695C16.8017 9.02992 15.4295 8.52597 13.9988 8.52597V8.52597ZM13.9988 16.4156C13.0693 16.4156 12.1779 16.0882 11.5206 15.5055C10.8634 14.9227 10.4941 14.1323 10.4941 13.3082C10.4941 12.484 10.8634 11.6936 11.5206 11.1109C12.1779 10.5281 13.0693 10.2007 13.9988 10.2007C14.9283 10.2007 15.8197 10.5281 16.477 11.1109C17.1342 11.6936 17.5035 12.484 17.5035 13.3082C17.5035 14.1323 17.1342 14.9227 16.477 15.5055C15.8197 16.0882 14.9283 16.4156 13.9988 16.4156V16.4156Z" fill="#9D9D9D"></path>
    <path d="M19.607 9.46523C20.3016 9.46523 20.8647 8.96597 20.8647 8.35011C20.8647 7.73424 20.3016 7.23499 19.607 7.23499C18.9124 7.23499 18.3494 7.73424 18.3494 8.35011C18.3494 8.96597 18.9124 9.46523 19.607 9.46523Z" fill="#9D9D9D"></path>
    <path d="M23.9552 7.21637C23.6851 6.59797 23.2723 6.03638 22.7434 5.56754C22.2144 5.09871 21.5809 4.73298 20.8833 4.49374C20.067 4.22205 19.2047 4.07515 18.333 4.05928C17.2095 4.01583 16.8537 4.00342 14.0047 4.00342C11.1557 4.00342 10.7905 4.00342 9.67632 4.05928C8.80527 4.07434 7.94354 4.22127 7.12832 4.49374C6.43058 4.7327 5.79688 5.09834 5.26788 5.5672C4.73887 6.03607 4.32625 6.59781 4.05649 7.21637C3.75001 7.94008 3.5847 8.70476 3.56765 9.47765C3.51749 10.4728 3.50232 10.7883 3.50232 13.3154C3.50232 15.8415 3.50232 16.1632 3.56765 17.1532C3.58515 17.9269 3.74965 18.6903 4.05649 19.4155C4.32701 20.0338 4.74003 20.5953 5.26916 21.0641C5.79829 21.5329 6.43189 21.8987 7.12949 22.1381C7.94316 22.4207 8.80525 22.5781 9.67865 22.6036C10.8022 22.647 11.158 22.6605 14.007 22.6605C16.856 22.6605 17.2212 22.6605 18.3353 22.6036C19.2069 22.5879 20.0693 22.4413 20.8857 22.1702C21.583 21.9304 22.2164 21.5643 22.7453 21.0954C23.2742 20.6264 23.687 20.0648 23.9575 19.4465C24.2643 18.7224 24.4288 17.959 24.4463 17.1852C24.4965 16.1901 24.5117 15.8746 24.5117 13.3475C24.5117 10.8203 24.5117 10.4997 24.4463 9.50972C24.4327 8.7259 24.2666 7.95004 23.9552 7.21637V7.21637ZM22.5342 17.0766C22.5266 17.6728 22.4039 18.2634 22.1713 18.8227C21.9961 19.225 21.7279 19.5903 21.3839 19.8951C21.0399 20.1999 20.6278 20.4375 20.174 20.5927C19.5501 20.7979 18.8911 20.9067 18.2257 20.9144C17.1173 20.9599 16.8047 20.9713 13.9627 20.9713C11.1183 20.9713 10.8278 20.9713 9.69849 20.9144C9.0334 20.9071 8.3747 20.7983 7.75132 20.5927C7.29595 20.4385 6.88215 20.2013 6.53669 19.8964C6.19123 19.5916 5.92179 19.2258 5.74582 18.8227C5.51651 18.2694 5.39385 17.6857 5.38299 17.0963C5.33282 16.1135 5.32115 15.8363 5.32115 13.3164C5.32115 10.7955 5.32115 10.5379 5.38299 9.53558C5.39053 8.93976 5.51325 8.34951 5.74582 7.79048C6.10165 6.97432 6.83082 6.33193 7.75132 6.01953C8.37501 5.81486 9.03352 5.70606 9.69849 5.69782C10.808 5.65334 11.1195 5.64093 13.9627 5.64093C16.8058 5.64093 17.0975 5.64093 18.2257 5.69782C18.8911 5.70492 19.5502 5.81375 20.174 6.01953C20.6277 6.17498 21.0398 6.41283 21.3838 6.71781C21.7278 7.02279 21.996 7.38816 22.1713 7.79048C22.4006 8.34385 22.5233 8.92749 22.5342 9.51696C22.5843 10.5007 22.5972 10.7769 22.5972 13.2978C22.5972 15.8177 22.5972 16.0887 22.547 17.0776H22.5342V17.0766Z" fill="#9D9D9D"></path>
  </symbol>
</svg>

<svg width="0" height="0" class="hidden">
  <symbol xmlns="http://www.w3.org/2000/svg" viewBox="0 0 50 50" id="github-icon">
    <path d="M17.791,46.836C18.502,46.53,19,45.823,19,45v-5.4c0-0.197,0.016-0.402,0.041-0.61C19.027,38.994,19.014,38.997,19,39 c0,0-3,0-3.6,0c-1.5,0-2.8-0.6-3.4-1.8c-0.7-1.3-1-3.5-2.8-4.7C8.9,32.3,9.1,32,9.7,32c0.6,0.1,1.9,0.9,2.7,2c0.9,1.1,1.8,2,3.4,2 c2.487,0,3.82-0.125,4.622-0.555C21.356,34.056,22.649,33,24,33v-0.025c-5.668-0.182-9.289-2.066-10.975-4.975 c-3.665,0.042-6.856,0.405-8.677,0.707c-0.058-0.327-0.108-0.656-0.151-0.987c1.797-0.296,4.843-0.647,8.345-0.714 c-0.112-0.276-0.209-0.559-0.291-0.849c-3.511-0.178-6.541-0.039-8.187,0.097c-0.02-0.332-0.047-0.663-0.051-0.999 c1.649-0.135,4.597-0.27,8.018-0.111c-0.079-0.5-0.13-1.011-0.13-1.543c0-1.7,0.6-3.5,1.7-5c-0.5-1.7-1.2-5.3,0.2-6.6 c2.7,0,4.6,1.3,5.5,2.1C21,13.4,22.9,13,25,13s4,0.4,5.6,1.1c0.9-0.8,2.8-2.1,5.5-2.1c1.5,1.4,0.7,5,0.2,6.6c1.1,1.5,1.7,3.2,1.6,5 c0,0.484-0.045,0.951-0.11,1.409c3.499-0.172,6.527-0.034,8.204,0.102c-0.002,0.337-0.033,0.666-0.051,0.999 c-1.671-0.138-4.775-0.28-8.359-0.089c-0.089,0.336-0.197,0.663-0.325,0.98c3.546,0.046,6.665,0.389,8.548,0.689 c-0.043,0.332-0.093,0.661-0.151,0.987c-1.912-0.306-5.171-0.664-8.879-0.682C35.112,30.873,31.557,32.75,26,32.969V33 c2.6,0,5,3.9,5,6.6V45c0,0.823,0.498,1.53,1.209,1.836C41.37,43.804,48,35.164,48,25C48,12.318,37.683,2,25,2S2,12.318,2,25 C2,35.164,8.63,43.804,17.791,46.836z"></path>
  </symbol>
</svg>
<svg width="0" height="0" class="hidden">
  <symbol version="1.1" id="linkedin-svgrepo-com" xmlns="http://www.w3.org/2000/svg" xmlns:xlink="http://www.w3.org/1999/xlink" enable-background="new 0 0 32 32" xml:space="preserve" viewBox="0 0 32 32">
    <g>
      <path fill="#808184" d="M12.5,12h-3C9.224,12,9,12.224,9,12.5v11C9,23.776,9.224,24,9.5,24h3c0.276,0,0.5-0.224,0.5-0.5v-11
		C13,12.224,12.776,12,12.5,12z M12,23h-2V13h2V23z"></path>
      <path fill="#808184" d="M11,7C9.897,7,9,7.897,9,9s0.897,2,2,2s2-0.897,2-2S12.103,7,11,7z M11,10c-0.552,0-1-0.449-1-1
		s0.448-1,1-1s1,0.449,1,1S11.552,10,11,10z"></path>
      <path fill="#808184" d="M19.515,11.986c-0.534,0-1.097,0.119-1.554,0.32C17.886,12.126,17.707,12,17.5,12h-3
		c-0.276,0-0.5,0.224-0.5,0.5v11c0,0.276,0.224,0.5,0.5,0.5h3c0.276,0,0.5-0.224,0.5-0.5l-0.002-6.661
		c0-0.003-0.012-0.336,0.2-0.565C18.365,16.092,18.65,16,19.044,16C19.696,16,20,16.279,20,16.879V23.5c0,0.276,0.224,0.5,0.5,0.5h3
		c0.276,0,0.5-0.224,0.5-0.5v-6.842C24,13.21,21.584,11.986,19.515,11.986z M23,23h-2v-6.121C21,15.72,20.251,15,19.044,15
		c-0.684,0-1.216,0.2-1.581,0.595c-0.507,0.549-0.468,1.246-0.463,1.284V23h-2V13h2v0.355c0,0.276,0.224,0.5,0.5,0.5
		c0.245,0,0.448-0.176,0.491-0.408c0.134-0.146,0.722-0.46,1.523-0.46c0.817,0,3.485,0.265,3.485,3.671V23z"></path>
      <path fill="#808184" d="M16-0.035C7.158-0.035-0.034,7.159-0.034,16S7.158,32.035,16,32.035S32.034,24.841,32.034,16
		S24.842-0.035,16-0.035z M16,30.965C7.748,30.965,1.034,24.252,1.034,16S7.748,1.035,16,1.035S30.966,7.748,30.966,16
		S24.252,30.965,16,30.965z"></path>
    </g>
  </symbol>
</svg>
<svg width="0" height="0" class="hidden">
  <symbol fill="none" xmlns="http://www.w3.org/2000/svg" viewBox="0 0 110 7" id="line-decoration">
    <path d="M109.887 3.30814L107 0.421385L104.113 3.30814L107 6.19489L109.887 3.30814ZM0 3.80814H107V2.80814H0V3.80814Z" fill="#3e7742"></path>
  </symbol>
</svg>


  <symbol fill="none" xmlns="http://www.w3.org/2000/svg" viewBox="0 0 25 24" id="play-icon">
    <path d="M20.5 3H4.5C3.397 3 2.5 3.897 2.5 5V19C2.5 20.103 3.397 21 4.5 21H20.5C21.603 21 22.5 20.103 22.5 19V5C22.5 3.897 21.603 3 20.5 3ZM20.501 9C20.5 9 20.5 9 20.501 9H20.036L17.369 5H20.5L20.501 9ZM16 15L10.5 18V12L16 15ZM15.036 9L12.369 5H14.965L17.632 9H15.036ZM12.632 9H10.036L7.369 5H9.965L12.632 9ZM4.5 5H4.965L7.632 9H4.5V5Z" fill="#ffffff"></path>
  </symbol>



  <symbol fill="none" xmlns="http://www.w3.org/2000/svg" viewBox="0 0 25 24" id="search-icon">
    <path d="M19.523 16.977C19.0546 16.5284 18.5988 16.0669 18.156 15.593C17.784 15.215 17.56 14.94 17.56 14.94L14.76 13.603C15.881 12.3316 16.4997 10.695 16.5 9C16.5 5.141 13.36 2 9.5 2C5.64 2 2.5 5.141 2.5 9C2.5 12.859 5.64 16 9.5 16C11.263 16 12.87 15.34 14.103 14.261L15.44 17.061C15.44 17.061 15.715 17.285 16.093 17.657C16.48 18.02 16.989 18.511 17.477 19.024L18.835 20.416L19.439 21.062L21.56 18.941L20.914 18.337C20.535 17.965 20.029 17.471 19.523 16.977ZM9.5 14C6.743 14 4.5 11.757 4.5 9C4.5 6.243 6.743 4 9.5 4C12.257 4 14.5 6.243 14.5 9C14.5 11.757 12.257 14 9.5 14Z" fill="white"></path>
  </symbol>


  <symbol fill="none" xmlns="http://www.w3.org/2000/svg" viewBox="0 0 17 20" id="up-arrow">
    <path d="M16.478 11.21C16.519 11.0193 16.5034 10.8207 16.4331 10.6388C16.3627 10.4568 16.2407 10.2994 16.082 10.186L2.08198 0.185967C1.92444 0.0726847 1.73732 0.00773394 1.54347 -0.000951572C1.34963 -0.00963709 1.15745 0.0383185 0.990407 0.137058C0.823367 0.235797 0.688698 0.381045 0.602849 0.555062C0.517 0.729078 0.483688 0.92433 0.50698 1.11697L2.50698 18.117C2.53 18.3119 2.60986 18.4957 2.7366 18.6455C2.86335 18.7953 3.03138 18.9046 3.21976 18.9596C3.40814 19.0146 3.60855 19.013 3.79601 18.9549C3.98347 18.8968 4.14969 18.7848 4.27398 18.633L7.88598 14.217L11.263 19.677L12.964 18.625L9.60698 13.197L15.696 11.979C15.8873 11.9415 16.0635 11.8487 16.2025 11.7119C16.3415 11.5752 16.4373 11.4007 16.478 11.21Z" fill="white"></path>
  </symbol>



  <symbol fill="none" xmlns="http://www.w3.org/2000/svg" viewBox="0 0 21 18" id="doc-icon">
    <path d="M18.5 0H5.5C4.397 0 3.5 0.897 3.5 2V4H2.5C1.397 4 0.5 4.897 0.5 6V16C0.5 17.103 1.397 18 2.5 18H8.5C9.603 18 10.5 17.103 10.5 16H18.5C19.603 16 20.5 15.103 20.5 14V2C20.5 0.897 19.603 0 18.5 0ZM4.5 6H8.5L8.497 15H2.5V6H4.5ZM10.5 14V6C10.5 4.897 9.603 4 8.5 4H5.5V2H16.5V14H10.5Z" fill="white"></path>
  </symbol>

    <symbol xmlns="http://www.w3.org/2000/svg" viewBox="0 0 24 24" id="github">

    <rect width="24" height="24" fill="none"></rect>
    <path
      d="M12,2A10,10,0,0,0,8.84,21.5c.5.08.66-.23.66-.5V19.31C6.73,19.91,6.14,18,6.14,18A2.69,2.69,0,0,0,5,16.5c-.91-.62.07-.6.07-.6a2.1,2.1,0,0,1,1.53,1,2.15,2.15,0,0,0,2.91.83,2.16,2.16,0,0,1,.63-1.34C8,16.17,5.62,15.31,5.62,11.5a3.87,3.87,0,0,1,1-2.71,3.58,3.58,0,0,1,.1-2.64s.84-.27,2.75,1a9.63,9.63,0,0,1,5,0c1.91-1.29,2.75-1,2.75-1a3.58,3.58,0,0,1,.1,2.64,3.87,3.87,0,0,1,1,2.71c0,3.82-2.34,4.66-4.57,4.91a2.39,2.39,0,0,1,.69,1.85V21c0,.27.16.59.67.5A10,10,0,0,0,12,2Z"
      fill="#817d8f">
    </path>
  </symbol>
  <symbol fill="none" xmlns="http://www.w3.org/2000/svg" viewBox="0 0 24 24" id="terminal">
    <path
      d="M22 9H2M6 17.5L8.5 15L6 12.5M11 17.5L15 17.5M2 7.8L2 16.2C2 17.8802 2 18.7202 2.32698 19.362C2.6146 19.9265 3.07354 20.3854 3.63803 20.673C4.27976 21 5.11984 21 6.8 21H17.2C18.8802 21 19.7202 21 20.362 20.673C20.9265 20.3854 21.3854 19.9265 21.673 19.362C22 18.7202 22 17.8802 22 16.2V7.8C22 6.11984 22 5.27977 21.673 4.63803C21.3854 4.07354 20.9265 3.6146 20.362 3.32698C19.7202 3 18.8802 3 17.2 3L6.8 3C5.11984 3 4.27976 3 3.63803 3.32698C3.07354 3.6146 2.6146 4.07354 2.32698 4.63803C2 5.27976 2 6.11984 2 7.8Z"
      stroke="#817d8f" stroke-width="2" stroke-linecap="round" stroke-linejoin="round"></path>
  </symbol>
  <symbol xmlns="http://www.w3.org/2000/svg" viewBox="0 0 24 24" id="sass">

    <rect width="24" height="24" fill="none"></rect>
    <path
      d="M12,2A10,10,0,1,1,2,12,10,10,0,0,1,12,2M10,15.33a2.55,2.55,0,0,1,0,1.5c0,.05,0,.1-.06.17s0,.07-.07.12a2.5,2.5,0,0,1-.46.67c-.58.64-1.41.88-1.74.68s-.17-1.12.49-1.83a6.91,6.91,0,0,1,1.76-1.26h0l.08-.05m8.27-9c-.45-1.78-3.4-2.36-6.18-1.37A14,14,0,0,0,7.34,7.63c-1.53,1.44-1.78,2.69-1.68,3.21.34,1.84,2.88,3.05,3.92,3.94h0c-.3.15-2.54,1.28-3.08,2.44A1.62,1.62,0,0,0,7,19.45a3.16,3.16,0,0,0,3.41-1.38A3.44,3.44,0,0,0,10.75,15a4.34,4.34,0,0,1,1.53-.08c1.76.21,2.1,1.3,2,1.76a1.16,1.16,0,0,1-.55.79c-.12.07-.16.1-.15.16s.07.08.17.06a1.36,1.36,0,0,0,1-1.22c0-1.08-1-2.28-2.81-2.25a4.84,4.84,0,0,0-1.56.22l-.08-.09c-1.13-1.2-3.21-2-3.12-3.67,0-.59.23-2.13,4-4,3.08-1.54,5.55-1.12,6-.17.61,1.33-1.32,3.82-4.52,4.18a2.44,2.44,0,0,1-2-.51c-.17-.17-.19-.2-.25-.17s0,.23,0,.33a2,2,0,0,0,1.15.91,6.18,6.18,0,0,0,3.76-.37C17.2,10.12,18.72,8,18.27,6.28Z"
      fill="#817d8f">
    </path>
  </symbol>
  <symbol fill="#817d8f" version="1.1" xmlns="http://www.w3.org/2000/svg" xmlns:xlink="http://www.w3.org/1999/xlink"
    enable-background="new 0 0 512 512" xml:space="preserve" viewBox="0 0 512 512" id="corel-draw">
    <g id="2069a460dcf28295e231f3111e0396ed">
      <path display="inline" d="M239.532,463.443h32.923c5.977,0,10.85,4.873,10.85,10.85v26.369c0,5.963-4.873,10.837-10.85,10.837
		h-32.923c-5.963,0-10.837-4.874-10.837-10.837v-26.369C228.695,468.316,233.569,463.443,239.532,463.443L239.532,463.443z
		 M239.532,463.443 M102.525,146.023c0.412,81.391,69.535,208.35,133.431,295.97h6.288
		c-48.593-88.639-90.036-197.933-90.402-284.073c-0.341-78.151,31.58-127.745,74.662-156.048c-9.564,0.89-19.146,2.217-28.64,4.042
		C144.734,27.04,102.144,70.638,102.525,146.023L102.525,146.023z M102.525,146.023 M243.163,0.753
		c-24.897,33.505-44.102,81.012-43.931,149.948c0.229,89.978,21.279,196.93,48.426,291.292h16.684
		c27.147-94.361,48.197-201.314,48.427-291.292c0.17-68.936-19.034-116.443-43.931-149.948
		C260.288,0.417,251.713,0.417,243.163,0.753L243.163,0.753z M243.163,0.753 M409.475,146.023
		c-0.411,81.391-69.534,208.35-133.431,295.97h-6.287c48.592-88.639,90.036-197.933,90.397-284.073
		C360.5,79.77,328.579,30.175,285.497,1.872c9.564,0.89,19.146,2.217,28.627,4.042C367.266,27.04,409.854,70.638,409.475,146.023
		L409.475,146.023z M409.475,146.023 M280.382,441.993c71.526-75.27,152.676-201.084,153.212-298.033
		c0.325-59.454-28.614-98.881-69.151-122.959c49.665,21.308,87.449,60.635,87.083,124.556
		c-0.582,98.475-94.968,228.569-169.9,296.436H280.382z M280.382,441.993 M231.619,441.993
		C160.092,366.724,78.943,240.909,78.406,143.96c-0.324-59.454,28.603-98.881,69.14-122.959
		C97.894,42.31,60.109,81.637,60.475,145.557c0.583,98.475,94.969,228.569,169.9,296.436H231.619z M231.619,441.993">
      </path>
    </g>
  </symbol>


  <symbol xmlns="http://www.w3.org/2000/svg" id="backend" viewBox="0 0 24 24">
    <path
      d="M21.3,13.88l-.45-.26c.1-.54,.15-1.09,.15-1.63s-.05-1.08-.15-1.63l.45-.26c1.43-.82,1.93-2.66,1.11-4.1-.4-.69-1.05-1.19-1.82-1.4-.77-.21-1.58-.1-2.28,.3l-.45,.26c-.84-.72-1.81-1.28-2.86-1.65v-.52c0-1.65-1.35-3-3-3s-3,1.35-3,3v.52c-1.05,.37-2.02,.93-2.86,1.65l-.45-.26c-.69-.4-1.5-.5-2.28-.3-.77,.21-1.42,.71-1.82,1.4-.82,1.43-.33,3.27,1.1,4.1l.45,.26c-.1,.54-.15,1.09-.15,1.63s.05,1.08,.15,1.63l-.45,.26c-1.43,.82-1.93,2.66-1.11,4.1,.4,.69,1.05,1.19,1.82,1.4,.77,.21,1.58,.1,2.28-.3l.45-.26c.84,.72,1.81,1.28,2.86,1.65v.52c0,1.65,1.35,3,3,3s3-1.35,3-3v-.52c1.05-.37,2.02-.93,2.86-1.65l.45,.26c.69,.4,1.5,.51,2.28,.3,.77-.21,1.42-.71,1.82-1.4,.82-1.43,.33-3.27-1.1-4.1Zm-2.56-3.74c.17,.62,.26,1.25,.26,1.86s-.09,1.23-.26,1.86c-.12,.44,.07,.9,.47,1.13l1.09,.63c.48,.28,.64,.89,.37,1.37-.13,.23-.35,.4-.61,.47-.26,.07-.53,.04-.76-.1l-1.09-.63c-.4-.23-.89-.16-1.21,.17-.89,.91-2.01,1.56-3.25,1.88-.44,.11-.75,.51-.75,.97v1.26c0,.55-.45,1-1,1s-1-.45-1-1v-1.26c0-.46-.31-.85-.75-.97-1.24-.32-2.36-.97-3.25-1.88-.19-.2-.45-.3-.72-.3-.17,0-.34,.04-.5,.13l-1.09,.63c-.23,.13-.5,.17-.76,.1-.26-.07-.47-.24-.61-.47-.27-.48-.11-1.09,.37-1.37l1.09-.63c.4-.23,.59-.69,.47-1.13-.17-.62-.26-1.25-.26-1.86s.09-1.23,.26-1.86c.12-.44-.07-.9-.47-1.13l-1.09-.63c-.48-.28-.64-.89-.37-1.37,.13-.23,.35-.4,.61-.47,.26-.07,.53-.03,.76,.1l1.09,.63c.4,.23,.89,.16,1.21-.17,.89-.91,2.01-1.56,3.25-1.88,.44-.11,.75-.51,.75-.97v-1.26c0-.55,.45-1,1-1s1,.45,1,1v1.26c0,.46,.31,.85,.75,.97,1.24,.32,2.36,.97,3.25,1.88,.32,.33,.82,.4,1.21,.17l1.09-.63c.23-.13,.5-.17,.76-.1,.26,.07,.47,.24,.61,.47,.27,.48,.11,1.09-.37,1.37l-1.09,.63c-.4,.23-.59,.69-.47,1.13Zm-4.96-1.94l-1.6,8c-.09,.48-.51,.8-.98,.8-.06,0-.13,0-.2-.02-.54-.11-.89-.63-.78-1.18l1.6-8c.11-.54,.63-.89,1.18-.78,.54,.11,.89,.63,.78,1.18Zm-4.57,2.65l-1.21,1.21,1.21,1.19c.39,.39,.39,1.02,0,1.41-.2,.2-.45,.29-.71,.29s-.51-.1-.71-.29l-1.21-1.21c-.78-.78-.78-2.04,0-2.81l1.21-1.21c.39-.39,1.02-.39,1.41,0s.39,1.02,0,1.41Zm8.21-.2c.78,.78,.78,2.04,0,2.81l-1.21,1.21c-.2,.2-.45,.29-.71,.29s-.51-.1-.71-.29c-.39-.39-.39-1.02,0-1.41l1.21-1.21-1.21-1.2c-.39-.39-.39-1.02,0-1.41s1.02-.39,1.41,0l1.21,1.21Z"
      fill="#f5ca55">
    </path>
  </symbol>
  <symbol xmlns="http://www.w3.org/2000/svg" id="internet" viewBox="0 0 24 24">
    <path
      d="M12,0A12,12,0,1,0,24,12,12.013,12.013,0,0,0,12,0ZM22,12a9.938,9.938,0,0,1-1.662,5.508l-1.192-1.193A.5.5,0,0,1,19,15.962V15a3,3,0,0,0-3-3H13a1,1,0,0,1-1-1v-.5a.5.5,0,0,1,.5-.5A2.5,2.5,0,0,0,15,7.5v-1a.5.5,0,0,1,.5-.5h1.379a2.516,2.516,0,0,0,1.767-.732l.377-.377A9.969,9.969,0,0,1,22,12Zm-19.951.963,3.158,3.158A2.978,2.978,0,0,0,7.329,17H10a1,1,0,0,1,1,1v3.949A10.016,10.016,0,0,1,2.049,12.963ZM13,21.949V18a3,3,0,0,0-3-3H7.329a1,1,0,0,1-.708-.293L2.163,10.249A9.978,9.978,0,0,1,17.456,3.63l-.224.224A.507.507,0,0,1,16.879,4H15.5A2.5,2.5,0,0,0,13,6.5v1a.5.5,0,0,1-.5.5A2.5,2.5,0,0,0,10,10.5V11a3,3,0,0,0,3,3h3a1,1,0,0,1,1,1v.962a2.516,2.516,0,0,0,.732,1.767l1.337,1.337A9.971,9.971,0,0,1,13,21.949Z"
      fill="#608ade">
    </path>
  </symbol>
  <symbol id="frontend" xmlns="http://www.w3.org/2000/svg" viewBox="0 0 24 24">
    <path
      d="m19 1h-14a5.006 5.006 0 0 0 -5 5v12a5.006 5.006 0 0 0 5 5h14a5.006 5.006 0 0 0 5-5v-12a5.006 5.006 0 0 0 -5-5zm-14 2h14a3 3 0 0 1 3 3v1h-20v-1a3 3 0 0 1 3-3zm14 18h-14a3 3 0 0 1 -3-3v-9h20v9a3 3 0 0 1 -3 3zm0-8a1 1 0 0 1 -1 1h-12a1 1 0 0 1 0-2h12a1 1 0 0 1 1 1zm-4 4a1 1 0 0 1 -1 1h-8a1 1 0 0 1 0-2h8a1 1 0 0 1 1 1zm-12-12a1 1 0 1 1 1 1 1 1 0 0 1 -1-1zm3 0a1 1 0 1 1 1 1 1 1 0 0 1 -1-1zm3 0a1 1 0 1 1 1 1 1 1 0 0 1 -1-1z"
      fill="#e88de0"></path>
  </symbol>
  <symbol xmlns="http://www.w3.org/2000/svg" id="management" viewBox="0 0 24 24">
    <path
      d="m13,9h-2c-1.103,0-2,.897-2,2v2c0,1.103.897,2,2,2h2c1.103,0,2-.897,2-2v-2c0-1.103-.897-2-2-2Zm0,4h-2v-2h2v2Zm0-12h-2c-1.103,0-2,.897-2,2v2c0,1.103.897,2,2,2h2c1.103,0,2-.897,2-2v-2c0-1.103-.897-2-2-2Zm0,4h-2v-2h2v2Zm0,12h-2c-1.103,0-2,.897-2,2v2c0,1.103.897,2,2,2h2c1.103,0,2-.897,2-2v-2c0-1.103-.897-2-2-2Zm0,4h-2v-2h2v2Zm10.866-10.613c-.186.321-.521.5-.867.5-.17,0-.342-.043-.499-.134l-.76-.439c-.706.795-1.66,1.365-2.74,1.585v1.101c0,.553-.447,1-1,1s-1-.447-1-1v-2c0-.552.447-1,1-1,1.654,0,3-1.346,3-3s-1.346-3-3-3c-.553,0-1-.448-1-1V1c0-.552.447-1,1-1s1,.448,1,1v1.101c1.08.22,2.035.79,2.74,1.585l.76-.439c.477-.276,1.089-.113,1.366.366.276.479.112,1.09-.366,1.366l-.757.437c.167.498.257,1.03.257,1.583s-.091,1.086-.257,1.583l.757.437c.479.276.643.888.366,1.366ZM7.414,18.586c.78.779.78,2.049,0,2.828l-1.793,1.793c-.195.195-.451.293-.707.293s-.512-.098-.707-.293c-.391-.391-.391-1.023,0-1.414l.793-.793h-1.5c-1.93,0-3.5-1.57-3.5-3.5v-3c0-1.93,1.57-3.5,3.5-3.5h2.5c.552,0,1,.448,1,1s-.448,1-1,1h-2.5c-.827,0-1.5.673-1.5,1.5v3c0,.827.673,1.5,1.5,1.5h1.5l-.793-.793c-.391-.391-.391-1.023,0-1.414s1.023-.391,1.414,0l1.793,1.793Z"
      fill="#57c08f">
    </path>
  </symbol>
  <symbol xmlns="http://www.w3.org/2000/svg" xml:space="preserve" viewBox="0 0 32 32" id="database">
    <path
      d="M12.427 2.06c-.714.063-1.719.207-2.42.347-3.35.669-5.91 2.263-6.716 4.18-.316.752-.304.377-.304 9.413 0 7.354.009 8.317.085 8.682.183.89.522 1.478 1.298 2.255.57.571 1.036.919 1.763 1.316 2.275 1.242 5.573 1.879 8.893 1.717a17.501 17.501 0 0 0 3.24-.447l.732-.177.388.278a7.46 7.46 0 0 0 2.299 1.093c.725.192 1.151-.043 1.435-.792.177-.47.558-.912.786-.912.282 0 .626.424.811.997.114.352.25.524.525.664.319.163.62.145 1.284-.079 1.12-.379 1.928-.862 2.682-1.607.736-.726.771-.997.233-1.798-.347-.516-.489-.948-.379-1.154.112-.211.349-.286.851-.272.843.023.952.014 1.161-.094.556-.287.71-.968.728-3.217.011-1.409.007-1.475-.103-1.68a.963.963 0 0 0-.488-.476c-.148-.075-.276-.083-.826-.053-.532.029-.688.021-.852-.048-.473-.199-.395-.7.246-1.59.22-.306.265-.554.164-.897-.065-.216-.154-.332-.514-.666a8.126 8.126 0 0 0-1.798-1.255c-.491-.246-1.476-.588-1.695-.588-.255 0-.567.128-.746.306l-.177.178v-3.978c0-3.429-.011-4.034-.085-4.388-.176-.856-.578-1.547-1.325-2.282-1.485-1.461-3.895-2.439-7.096-2.88-.613-.084-3.456-.151-4.08-.096m3.733 2.074c2.16.259 4.077.884 5.353 1.744.495.334 1.058.922 1.265 1.322.163.314.18.389.18.8 0 .411-.017.486-.18.8-.207.4-.77.988-1.266 1.322-1.256.847-3.039 1.437-5.299 1.753-.944.132-3.482.132-4.426 0-2.26-.316-4.043-.906-5.299-1.753C5.992 9.788 5.429 9.2 5.222 8.8c-.163-.314-.18-.389-.18-.8 0-.411.017-.486.18-.8.207-.4.77-.988 1.265-1.322.423-.284 1.363-.752 1.94-.963 1.237-.454 2.67-.738 4.453-.882.552-.045 2.587.018 3.28.101m-9.627 8.31c1.331.662 3.039 1.149 4.88 1.395 1.376.183 3.627.194 4.987.025 2.433-.303 4.624-1.027 6.12-2.022l.467-.31v3.92l-.254-.13a.769.769 0 0 0-.52-.104c-.379.039-1.025.264-1.706.595a6.27 6.27 0 0 0-1.646 1.107c-.69.622-.824 1.087-.468 1.632.373.571.446.71.401.756-.076.075-1.214.353-1.941.472-1.86.307-4.294.28-6.111-.067-1.656-.316-3.125-.848-4.136-1.499-.521-.337-1.201-1.033-1.406-1.442l-.16-.319-.015-2.462-.016-2.462.469.312c.258.171.733.443 1.055.603m15.321 5.196c.062.11.27.372.462.582.297.323.412.407.764.556.562.237 1.207.276 1.717.103.596-.201 1.016-.536 1.475-1.174l.189-.264.356.18c.196.1.468.262.605.36.239.171.246.184.174.311-.127.227-.334.927-.371 1.257-.108.955.464 1.982 1.332 2.394.38.18.809.295 1.099.295h.157v.467c0 .256-.016.592-.034.746-.03.247-.048.28-.156.28-.258 0-.917.17-1.237.319a2.496 2.496 0 0 0-1.293 1.547c-.143.537-.042 1.343.246 1.974l.134.293-.121.098c-.2.161-.809.507-.958.543-.122.03-.156.006-.277-.201-.203-.346-.803-.882-1.19-1.064a2.368 2.368 0 0 0-2.064.02c-.367.185-.926.694-1.144 1.043-.118.187-.168.226-.264.203-.138-.034-.713-.362-.96-.549l-.172-.129.1-.196c.354-.693.448-1.615.226-2.221a2.474 2.474 0 0 0-.824-1.126c-.376-.277-.727-.413-1.32-.512l-.452-.075-.016-.53a5.175 5.175 0 0 1 .015-.7c.03-.162.046-.171.336-.205 1.057-.122 1.755-.479 2.174-1.112.512-.771.543-1.698.092-2.715l-.137-.31.122-.09c.137-.102 1.024-.596 1.071-.597.017-.001.081.089.144.199M5.44 19.84c1.499.996 3.68 1.715 6.142 2.025.839.105 2.44.153 3.481.104.555-.026 1.017-.04 1.027-.03.009.009-.01.158-.043.332-.102.54.035 2.315.223 2.886.074.225.337.475.609.579.178.068.304.075.666.037 1.143-.121 1.466.2 1.041 1.033-.33.646-.397.698-1.105.848-1.17.247-1.881.313-3.454.316-1.492.003-2.102-.043-3.174-.239-1.714-.314-3.205-.847-4.247-1.517-.521-.337-1.201-1.033-1.406-1.442l-.16-.319-.015-2.444c-.013-1.983-.003-2.437.053-2.404.038.022.201.128.362.235m18.095 2.292c-.193.117-.481.489-.53.681-.039.158.107.687.227.82.05.055.198.163.33.24.207.121.28.136.533.11.36-.037.606-.218.799-.587.127-.243.131-.273.068-.56-.07-.32-.271-.59-.546-.734-.213-.112-.675-.096-.881.03"
      fill-rule="evenodd" fill="#ec7372"></path>
  </symbol>

   <symbol version="1.1" xmlns="http://www.w3.org/2000/svg" xmlns:xlink="http://www.w3.org/1999/xlink"
    preserveAspectRatio="xMidYMid" viewBox="-27 0 310 310" id="prisma">
    <g>
      <path
        d="M254.312882,235.518775 L148.000961,9.74987264 C145.309805,4.08935083 139.731924,0.359884549 133.472618,0.0359753113 C127.198908,-0.384374336 121.212054,2.71925839 117.939655,8.08838662 L2.63252565,194.847143 C-0.947129465,200.604248 -0.871814894,207.912774 2.8257217,213.594888 L59.2003287,300.896318 C63.5805009,307.626626 71.8662281,310.673635 79.5631922,308.384597 L243.161606,259.992851 C248.145475,258.535702 252.252801,254.989363 254.421072,250.271225 C256.559881,245.57581 256.523135,240.176915 254.32061,235.511047 L254.312882,235.518775 Z M230.511129,245.201761 L91.6881763,286.252058 C87.4533189,287.511696 83.388474,283.840971 84.269448,279.567474 L133.866738,42.0831633 C134.794079,37.6396542 140.929985,36.9364206 142.869673,41.0476325 L234.684164,236.021085 C235.505704,237.779423 235.515611,239.809427 234.711272,241.575701 C233.906934,243.341974 232.369115,244.667163 230.503401,245.201761 L230.511129,245.201761 Z"
        fill="#817d8f" fill-rule="nonzero"></path>
    </g>
  </symbol>
  <symbol fill="none" xmlns="http://www.w3.org/2000/svg" viewBox="0 0 24 24" id="git">
    <path fill-rule="evenodd" clip-rule="evenodd"
      d="M13.4142 3.82843C12.6332 3.04738 11.3668 3.04738 10.5858 3.82843L9.91421 4.5L11.482 6.06774C11.6472 6.02356 11.8208 6 12 6C13.1046 6 14 6.89543 14 8C14 8.17916 13.9764 8.35282 13.9323 8.51804L15.982 10.5677C16.1472 10.5236 16.3208 10.5 16.5 10.5C17.6046 10.5 18.5 11.3954 18.5 12.5C18.5 13.6046 17.6046 14.5 16.5 14.5C15.3954 14.5 14.5 13.6046 14.5 12.5C14.5 12.3208 14.5236 12.1472 14.5677 11.982L13 10.4142V15.2676C13.5978 15.6134 14 16.2597 14 17C14 18.1046 13.1046 19 12 19C10.8954 19 10 18.1046 10 17C10 16.2597 10.4022 15.6134 11 15.2676V9.73244C10.4022 9.38663 10 8.74028 10 8C10 7.82084 10.0236 7.64718 10.0677 7.48196L8.5 5.91421L3.82843 10.5858C3.04738 11.3668 3.04738 12.6332 3.82843 13.4142L10.5858 20.1716C11.3668 20.9526 12.6332 20.9526 13.4142 20.1716L20.1716 13.4142C20.9526 12.6332 20.9526 11.3668 20.1716 10.5858L13.4142 3.82843ZM9.17157 2.41421C10.7337 0.852115 13.2663 0.852119 14.8284 2.41422L21.5858 9.17157C23.1479 10.7337 23.1479 13.2663 21.5858 14.8284L14.8284 21.5858C13.2663 23.1479 10.7337 23.1479 9.17157 21.5858L2.41421 14.8284C0.852115 13.2663 0.852119 10.7337 2.41422 9.17157L9.17157 2.41421Z"
      fill="#817d8f"></path>
  </symbol>
    <symbol fill="none" xmlns="http://www.w3.org/2000/svg" viewBox="0 0 16 16" id="typescript">
    <path fill-rule="nonzero" clip-rule="nonzero"
      d="M0 1.75C0 0.783501 0.783502 0 1.75 0H14.25C15.2165 0 16 0.783502 16 1.75V3.75C16 4.16421 15.6642 4.5 15.25 4.5C14.8358 4.5 14.5 4.16421 14.5 3.75V1.75C14.5 1.61193 14.3881 1.5 14.25 1.5H1.75C1.61193 1.5 1.5 1.61193 1.5 1.75V14.25C1.5 14.3881 1.61193 14.5 1.75 14.5H15.25C15.6642 14.5 16 14.8358 16 15.25C16 15.6642 15.6642 16 15.25 16H1.75C0.783501 16 0 15.2165 0 14.25V1.75ZM4.75 6.5C4.75 6.08579 5.08579 5.75 5.5 5.75H9.25C9.66421 5.75 10 6.08579 10 6.5C10 6.91421 9.66421 7.25 9.25 7.25H8.25V12.5C8.25 12.9142 7.91421 13.25 7.5 13.25C7.08579 13.25 6.75 12.9142 6.75 12.5V7.25H5.5C5.08579 7.25 4.75 6.91421 4.75 6.5ZM11.2757 6.58011C11.6944 6.08164 12.3507 5.75 13.25 5.75C14.0849 5.75 14.7148 6.03567 15.1394 6.48481C15.4239 6.78583 15.4105 7.26052 15.1095 7.54505C14.8085 7.82958 14.3338 7.81621 14.0493 7.51519C13.9394 7.39898 13.7204 7.25 13.25 7.25C12.7493 7.25 12.5306 7.41836 12.4243 7.54489C12.2934 7.70065 12.25 7.896 12.25 8C12.25 8.104 12.2934 8.29935 12.4243 8.45511C12.5306 8.58164 12.7493 8.75 13.25 8.75C13.3257 8.75 13.3988 8.76121 13.4676 8.78207C14.1307 8.87646 14.6319 9.17251 14.9743 9.58011C15.3684 10.0493 15.5 10.604 15.5 11C15.5 11.396 15.3684 11.9507 14.9743 12.4199C14.5556 12.9184 13.8993 13.25 13 13.25C12.1651 13.25 11.5352 12.9643 11.1106 12.5152C10.8261 12.2142 10.8395 11.7395 11.1405 11.4549C11.4415 11.1704 11.9162 11.1838 12.2007 11.4848C12.3106 11.601 12.5296 11.75 13 11.75C13.5007 11.75 13.7194 11.5816 13.8257 11.4551C13.9566 11.2993 14 11.104 14 11C14 10.896 13.9566 10.7007 13.8257 10.5449C13.7194 10.4184 13.5007 10.25 13 10.25C12.9243 10.25 12.8512 10.2388 12.7824 10.2179C12.1193 10.1235 11.6181 9.82749 11.2757 9.41989C10.8816 8.95065 10.75 8.396 10.75 8C10.75 7.604 10.8816 7.04935 11.2757 6.58011Z"
      fill="#817d8f"></path>
  </symbol>
  <symbol fill="none" xmlns="http://www.w3.org/2000/svg" viewBox="0 0 16 16" id="vscode">
    <path
      d="M11.573 0.275 C 11.507 0.294,11.421 0.327,11.382 0.348 C 11.343 0.369,9.999 1.520,8.396 2.906 C 6.792 4.291,5.462 5.424,5.440 5.424 C 5.418 5.424,4.776 4.956,4.013 4.384 C 3.251 3.813,2.585 3.327,2.533 3.306 C 2.383 3.243,2.065 3.256,1.920 3.330 C 1.754 3.416,0.189 4.975,0.094 5.150 C -0.036 5.390,-0.020 5.704,0.134 5.916 C 0.175 5.973,0.709 6.473,1.319 7.026 C 1.930 7.579,2.426 8.041,2.421 8.052 C 2.417 8.064,1.926 8.494,1.330 9.009 C 0.734 9.523,0.208 9.990,0.162 10.045 C -0.015 10.259,-0.044 10.597,0.093 10.849 C 0.189 11.024,1.752 12.583,1.920 12.670 C 2.086 12.757,2.417 12.759,2.573 12.675 C 2.632 12.644,3.273 12.173,3.997 11.629 L 5.315 10.641 5.424 10.741 C 5.484 10.796,6.713 11.909,8.154 13.214 C 10.000 14.885,10.820 15.610,10.926 15.667 L 11.076 15.747 11.750 15.747 L 12.424 15.747 14.055 14.933 C 15.555 14.185,15.695 14.110,15.803 13.991 C 16.016 13.754,16.000 14.232,16.000 8.253 C 16.000 2.432,16.009 2.785,15.849 2.554 C 15.791 2.470,15.439 2.223,14.215 1.406 C 13.358 0.834,12.602 0.341,12.535 0.311 C 12.435 0.266,12.348 0.255,12.053 0.248 C 11.816 0.243,11.652 0.252,11.573 0.275 M13.272 2.580 L 14.505 3.400 14.506 8.220 L 14.507 13.040 13.302 13.640 L 12.098 14.240 11.813 14.240 L 11.529 14.240 8.660 11.644 C 7.082 10.216,5.748 9.028,5.697 9.003 C 5.498 8.909,5.197 8.902,5.036 8.989 C 5.002 9.007,4.385 9.464,3.664 10.004 C 2.943 10.545,2.342 10.987,2.329 10.987 C 2.299 10.987,1.852 10.539,1.868 10.525 C 2.541 9.948,3.946 8.731,4.050 8.634 C 4.136 8.553,4.219 8.442,4.260 8.354 C 4.317 8.227,4.325 8.180,4.314 8.011 C 4.304 7.853,4.286 7.788,4.223 7.687 C 4.170 7.601,3.769 7.221,2.994 6.520 L 1.844 5.480 2.075 5.247 C 2.202 5.118,2.317 5.013,2.331 5.013 C 2.344 5.013,2.975 5.478,3.731 6.046 C 5.227 7.169,5.268 7.194,5.541 7.162 C 5.619 7.153,5.733 7.122,5.794 7.093 C 5.856 7.064,6.297 6.703,6.773 6.291 C 7.250 5.879,7.784 5.417,7.960 5.265 C 8.136 5.113,9.120 4.263,10.147 3.375 C 11.173 2.488,12.019 1.761,12.026 1.761 C 12.034 1.760,12.594 2.129,13.272 2.580 M11.640 4.257 C 11.611 4.263,11.539 4.286,11.480 4.308 C 11.421 4.329,10.401 5.046,9.213 5.901 C 6.867 7.590,6.920 7.547,6.851 7.854 C 6.825 7.969,6.825 8.031,6.851 8.146 C 6.919 8.453,6.868 8.410,9.213 10.099 C 10.401 10.954,11.427 11.675,11.493 11.700 C 11.840 11.833,12.236 11.671,12.422 11.320 L 12.493 11.187 12.493 8.000 L 12.493 4.813 12.422 4.680 C 12.333 4.512,12.208 4.391,12.053 4.324 C 11.926 4.268,11.729 4.236,11.640 4.257 M10.980 8.757 L 10.973 9.514 9.927 8.764 C 9.352 8.351,8.881 8.007,8.881 8.000 C 8.881 7.993,9.352 7.649,9.927 7.236 L 10.973 6.486 10.980 7.243 C 10.984 7.659,10.984 8.341,10.980 8.757 "
      stroke="none" fill="#817d8f" fill-rule="evenodd"></path>
  </symbol>

    <symbol fill="none" xmlns="http://www.w3.org/2000/svg" viewBox="0 0 16 16" id="javascript">
    <path fill-rule="nonzero" clip-rule="nonzero"
      d="M0 1.75C0 0.783501 0.783502 0 1.75 0H14.25C15.2165 0 16 0.783502 16 1.75V3.75C16 4.16421 15.6642 4.5 15.25 4.5C14.8358 4.5 14.5 4.16421 14.5 3.75V1.75C14.5 1.61193 14.3881 1.5 14.25 1.5H1.75C1.61193 1.5 1.5 1.61193 1.5 1.75V14.25C1.5 14.3881 1.61193 14.5 1.75 14.5H15.25C15.6642 14.5 16 14.8358 16 15.25C16 15.6642 15.6642 16 15.25 16H1.75C0.783501 16 0 15.2165 0 14.25V1.75ZM8.25 5.75C8.66421 5.75 9 6.08579 9 6.5V10.5C9 11.5048 8.72399 12.2584 8.15514 12.7324C7.61223 13.1848 6.95384 13.25 6.5 13.25C6.08579 13.25 5.75 12.9142 5.75 12.5C5.75 12.0858 6.08579 11.75 6.5 11.75C6.84617 11.75 7.06277 11.6902 7.19486 11.5801C7.301 11.4916 7.5 11.2452 7.5 10.5V6.5C7.5 6.08579 7.83578 5.75 8.25 5.75ZM11.2757 6.58011C11.6944 6.08164 12.3507 5.75 13.25 5.75C14.0849 5.75 14.7148 6.03567 15.1394 6.48481C15.4239 6.78583 15.4105 7.26052 15.1095 7.54505C14.8085 7.82958 14.3338 7.81621 14.0493 7.51519C13.9394 7.39898 13.7204 7.25 13.25 7.25C12.7493 7.25 12.5306 7.41836 12.4243 7.54489C12.2934 7.70065 12.25 7.896 12.25 8C12.25 8.104 12.2934 8.29935 12.4243 8.45511C12.5306 8.58164 12.7493 8.75 13.25 8.75C13.3257 8.75 13.3988 8.76121 13.4676 8.78207C14.1307 8.87646 14.6319 9.17251 14.9743 9.58011C15.3684 10.0493 15.5 10.604 15.5 11C15.5 11.396 15.3684 11.9507 14.9743 12.4199C14.5556 12.9184 13.8993 13.25 13 13.25C12.1651 13.25 11.5352 12.9643 11.1106 12.5152C10.8261 12.2142 10.8395 11.7395 11.1405 11.4549C11.4415 11.1704 11.9162 11.1838 12.2007 11.4848C12.3106 11.601 12.5296 11.75 13 11.75C13.5007 11.75 13.7194 11.5816 13.8257 11.4551C13.9566 11.2993 14 11.104 14 11C14 10.896 13.9566 10.7007 13.8257 10.5449C13.7194 10.4184 13.5007 10.25 13 10.25C12.9243 10.25 12.8512 10.2388 12.7824 10.2179C12.1193 10.1235 11.6181 9.82749 11.2757 9.41989C10.8816 8.95065 10.75 8.396 10.75 8C10.75 7.604 10.8816 7.04935 11.2757 6.58011Z"
      fill="#817d8f"></path>
  </symbol>
  <symbol fill="none" xmlns="http://www.w3.org/2000/svg" viewBox="0 0 16 16" id="nodejs">
    <path fill-rule="nonzero" clip-rule="nonzero"
      d="M7.58638 0.102166C7.8199 -0.0340553 8.10867 -0.0340553 8.34219 0.102166L14.5565 3.72717C14.7869 3.86157 14.9286 4.10825 14.9286 4.375V11.625C14.9286 11.8918 14.7869 12.1384 14.5565 12.2728L8.34219 15.8978C8.10867 16.0341 7.8199 16.0341 7.58638 15.8978L6.03281 14.9916C5.67502 14.7829 5.55417 14.3236 5.76288 13.9658C5.97159 13.6081 6.43083 13.4872 6.78862 13.6959L7.96429 14.3817L13.4286 11.1942V4.80578L7.96429 1.61828L2.5 4.80578V11.1942L3.6168 11.8457C3.96098 11.9561 4.38611 11.9831 4.68576 11.8507C4.82477 11.7893 4.95031 11.6893 5.04968 11.5107C5.15426 11.3227 5.25 11.0098 5.25 10.5V5.25C5.25 4.83579 5.58579 4.5 6 4.5C6.41421 4.5 6.75 4.83579 6.75 5.25V10.5C6.75 11.1902 6.62104 11.7716 6.36047 12.2399C6.09471 12.7176 5.71466 13.036 5.29192 13.2228C4.48562 13.579 3.59523 13.433 3.04999 13.2371C3.00686 13.2216 2.96525 13.2022 2.92567 13.1791L1.3721 12.2728C1.14168 12.1384 1 11.8918 1 11.625V4.375C1 4.10825 1.14168 3.86157 1.3721 3.72717L7.58638 0.102166ZM8.24655 5.28323C8.64339 4.81081 9.26318 4.5 10.1042 4.5C10.8847 4.5 11.4792 4.76756 11.8815 5.19314C12.166 5.49417 12.1527 5.96885 11.8516 6.25338C11.5506 6.53792 11.0759 6.52455 10.7914 6.22352C10.7038 6.13087 10.5202 6 10.1042 6C9.66182 6 9.47952 6.14753 9.39511 6.24802C9.28615 6.37774 9.25 6.54184 9.25 6.625C9.25 6.70816 9.28615 6.87226 9.39511 7.00198C9.47952 7.10247 9.66182 7.25 10.1042 7.25C10.1782 7.25 10.2497 7.26073 10.3173 7.28072C10.9368 7.37001 11.4089 7.64784 11.7326 8.03323C12.1049 8.47643 12.2292 8.99983 12.2292 9.375C12.2292 9.75017 12.1049 10.2736 11.7326 10.7168C11.3358 11.1892 10.716 11.5 9.87501 11.5C9.0945 11.5 8.49996 11.2324 8.09768 10.8069C7.81315 10.5058 7.82652 10.0311 8.12755 9.74662C8.42857 9.46208 8.90325 9.47546 9.18779 9.77648C9.27536 9.86913 9.459 10 9.87501 10C10.3174 10 10.4997 9.85247 10.5841 9.75198C10.693 9.62226 10.7292 9.45816 10.7292 9.375C10.7292 9.29184 10.693 9.12774 10.5841 8.99802C10.4997 8.89753 10.3174 8.75 9.87501 8.75C9.80097 8.75 9.72943 8.73927 9.66188 8.71928C9.04237 8.62999 8.57028 8.35216 8.24655 7.96677C7.87427 7.52357 7.75 7.00017 7.75 6.625C7.75 6.24983 7.87427 5.72643 8.24655 5.28323Z"
      fill="#817d8f"></path>
  </symbol>
  <symbol fill="none" xmlns="http://www.w3.org/2000/svg" viewBox="0 0 16 16" id="npm">
    <path fill-rule="nonzero" clip-rule="nonzero"
      d="M1 2.88462C1 1.84377 1.84377 1 2.88462 1H13.1154C14.1562 1 15 1.84377 15 2.88462V13.1154C15 14.1562 14.1562 15 13.1154 15H2.88462C1.84377 15 1 14.1562 1 13.1154V2.88462ZM2.88462 2.61538C2.73592 2.61538 2.61538 2.73592 2.61538 2.88462V13.1154C2.61538 13.2641 2.73592 13.3846 2.88462 13.3846H8.53846V6.38462C8.53846 5.93854 8.90008 5.57692 9.34615 5.57692C9.79223 5.57692 10.1538 5.93854 10.1538 6.38462V13.3846H13.1154C13.2641 13.3846 13.3846 13.2641 13.3846 13.1154V2.88462C13.3846 2.73592 13.2641 2.61538 13.1154 2.61538H2.88462Z"
      fill="#817d8f"></path>
  </symbol>

  <symbol xmlns="http://www.w3.org/2000/svg" viewBox="0 0 50 50" id="expressjs">
    <path
      d="M49.729 11h-.85c-1.051 0-2.041.49-2.68 1.324l-8.7 11.377-8.7-11.377C28.162 11.49 27.171 11 26.121 11h-.85l10.971 14.346L25.036 40h.85c1.051 0 2.041-.49 2.679-1.324L37.5 26.992l8.935 11.684C47.073 39.51 48.063 40 49.114 40h.85L38.758 25.346 49.729 11zM21.289 34.242c-2.554 3.881-7.582 5.87-12.389 4.116C4.671 36.815 2 32.611 2 28.109L2 27h12v0h11l0-4.134c0-6.505-4.818-12.2-11.295-12.809C6.273 9.358 0 15.21 0 22.5l0 5.573c0 5.371 3.215 10.364 8.269 12.183 6.603 2.376 13.548-1.17 15.896-7.256 0 0 0 0 0 0h-.638C22.616 33 21.789 33.481 21.289 34.242zM2 22.5C2 16.71 6.71 12 12.5 12S23 16.71 23 22.5V25H2V22.5z"
      fill="#817d8f">
    </path>      
    </symbol>

     <symbol fill="none" xmlns="http://www.w3.org/2000/svg" viewBox="0 0 16 16" id="html">
    <path fill-rule="nonzero" clip-rule="nonzero"
      d="M3 1.5C2.86193 1.5 2.75 1.61193 2.75 1.75V11.3003C2.75 11.3896 2.79769 11.4722 2.87509 11.5168L7.73381 14.3194C7.80942 14.363 7.90231 14.364 7.97886 14.3221L13.1201 11.5048C13.2002 11.4609 13.25 11.3769 13.25 11.2856V1.75C13.25 1.61193 13.1381 1.5 13 1.5H3ZM1.25 1.75C1.25 0.783502 2.0335 0 3 0H13C13.9665 0 14.75 0.783503 14.75 1.75V11.2856C14.75 11.9248 14.4015 12.5131 13.841 12.8203L8.69968 15.6375C8.16383 15.9311 7.51363 15.924 6.98434 15.6187L2.12562 12.8162C1.58382 12.5037 1.25 11.9258 1.25 11.3003V1.75ZM5 4.25C5 3.83579 5.33579 3.5 5.75 3.5H10.3654C10.7796 3.5 11.1154 3.83579 11.1154 4.25C11.1154 4.66421 10.7796 5 10.3654 5H6.5V6.71154H10.3654C10.7796 6.71154 11.1154 7.04732 11.1154 7.46154V10.3462C11.1154 10.6302 10.9549 10.8899 10.7008 11.017L8.3931 12.1708C8.18196 12.2764 7.93343 12.2764 7.72228 12.1708L5.41459 11.017C5.1605 10.8899 5 10.6302 5 10.3462V9.76923C5 9.35502 5.33579 9.01923 5.75 9.01923C6.16421 9.01923 6.5 9.35502 6.5 9.76923V9.88263L8.05769 10.6615L9.61539 9.88263V8.21154H5.75C5.33579 8.21154 5 7.87575 5 7.46154V4.25Z"
      fill="#817d8f"></path>
  </symbol>
    <symbol fill="none" xmlns="http://www.w3.org/2000/svg" viewBox="0 0 16 16" id="css">
    <path fill-rule="nonzero" clip-rule="nonzero"
      d="M3 1.60001C2.86193 1.60001 2.75 1.71193 2.75 1.85001V11.4003C2.75 11.4896 2.79769 11.5722 2.87509 11.6168L7.73381 14.4194C7.80942 14.463 7.90231 14.464 7.97886 14.4221L13.1201 11.6048C13.2002 11.5609 13.25 11.4769 13.25 11.3856V1.85001C13.25 1.71193 13.1381 1.60001 13 1.60001H3ZM1.25 1.85001C1.25 0.883508 2.0335 0.100006 3 0.100006H13C13.9665 0.100006 14.75 0.883509 14.75 1.85001V11.3856C14.75 12.0248 14.4015 12.6131 13.841 12.9203L8.69968 15.7375C8.16383 16.0311 7.51363 16.024 6.98434 15.7187L2.12562 12.9162C1.58382 12.6037 1.25 12.0258 1.25 11.4003V1.85001ZM5 4.35001C5 3.93579 5.33579 3.60001 5.75 3.60001H10.3654C10.7796 3.60001 11.1154 3.93579 11.1154 4.35001V10.4462C11.1154 10.7302 10.9549 10.9899 10.7008 11.117L8.3931 12.2708C8.18196 12.3764 7.93343 12.3764 7.72228 12.2708L5.41459 11.117C5.1605 10.9899 5 10.7302 5 10.4462V9.86924C5 9.45502 5.33579 9.11924 5.75 9.11924C6.16421 9.11924 6.5 9.45502 6.5 9.86924V9.98263L8.05769 10.7615L9.61539 9.98263V8.31154H7C6.58579 8.31154 6.25 7.97576 6.25 7.56154C6.25 7.14733 6.58579 6.81154 7 6.81154H9.61539V5.10001H5.75C5.33579 5.10001 5 4.76422 5 4.35001Z"
      fill="#817d8f"></path>
  </symbol>

    <symbol fill="none" xmlns="http://www.w3.org/2000/svg" viewBox="0 0 24 24" id="figma">
    <path
      d="M12 3H9C7.34315 3 6 4.34315 6 6C6 7.65685 7.34315 9 9 9M12 3V9M12 3H15C16.6569 3 18 4.34315 18 6C18 7.65685 16.6569 9 15 9M12 9H9M12 9H15M12 9V15M9 9C7.34315 9 6 10.3431 6 12C6 13.6569 7.34315 15 9 15M15 9C16.6569 9 18 10.3431 18 12C18 13.6569 16.6569 15 15 15C13.3431 15 12 13.6569 12 12C12 10.3431 13.3431 9 15 9ZM12 15H9M12 15V18C12 19.6569 10.6569 21 9 21C7.34315 21 6 19.6569 6 18C6 16.3431 7.34315 15 9 15"
      stroke="#817d8f" stroke-width="2" stroke-linecap="round" stroke-linejoin="round"></path>
  </symbol>
    <symbol fill="none" xmlns="http://www.w3.org/2000/svg" viewBox="0 0 16 16" id="react">
    <path fill-rule="nonzero" clip-rule="nonzero"
      d="M4.84989 2.37195C4.59895 2.51683 4.33488 2.91636 4.30424 3.78785C4.28968 4.20181 3.9423 4.52559 3.52835 4.51103C3.11439 4.49647 2.79061 4.1491 2.80516 3.73514C2.84273 2.66673 3.1806 1.60366 4.09989 1.07291C5.02179 0.540653 6.11484 0.782356 7.06128 1.28727C7.42674 1.48224 7.56495 1.93656 7.36998 2.30201C7.17501 2.66747 6.72069 2.80568 6.35524 2.61072C5.5818 2.1981 5.10158 2.22663 4.84989 2.37195ZM8.87139 3.67284C9.19036 3.40858 9.66315 3.45293 9.92741 3.7719C10.4818 4.44103 11.0136 5.20405 11.4963 6.04018C12.5366 7.84191 13.178 9.68785 13.3509 11.2362C13.4372 12.0091 13.4108 12.7446 13.2303 13.3754C13.0484 14.011 12.6941 14.5863 12.0999 14.9293C11.381 15.3444 10.5509 15.2855 9.79114 15.0089C9.02868 14.7313 8.24395 14.2056 7.49586 13.5228C7.18993 13.2435 7.16831 12.7691 7.44756 12.4632C7.72681 12.1573 8.20119 12.1356 8.50712 12.4149C9.16624 13.0165 9.78567 13.4105 10.3043 13.5994C10.8257 13.7892 11.1537 13.7436 11.3499 13.6303C11.5143 13.5354 11.6797 13.342 11.7882 12.9627C11.8981 12.5787 11.9328 12.0529 11.8602 11.4026C11.7152 10.1045 11.1591 8.45607 10.1973 6.79018C9.75492 6.02396 9.27081 5.33055 8.77232 4.72886C8.50807 4.40989 8.55242 3.93709 8.87139 3.67284Z"
      fill="#817d8f"></path>
    <path fill-rule="nonzero" clip-rule="nonzero"
      d="M14.5 8.20557C14.5 7.91581 14.286 7.48735 13.5466 7.02507C13.1954 6.80549 13.0887 6.34276 13.3083 5.99154C13.5279 5.64032 13.9906 5.53361 14.3418 5.75319C15.2483 6.31993 16 7.14407 16 8.20557C16 9.27009 15.2442 10.0958 14.3337 10.663C13.9821 10.882 13.5195 10.7746 13.3005 10.423C13.0815 10.0714 13.189 9.60887 13.5405 9.38985C14.2846 8.92635 14.5 8.4962 14.5 8.20557ZM11.3626 11.0378C11.432 11.4462 11.1572 11.8335 10.7488 11.9029C9.89219 12.0484 8.96547 12.1274 8 12.1274C5.91954 12.1274 4.00018 11.76 2.57286 11.1355C1.86032 10.8238 1.23659 10.4332 0.780529 9.9615C0.320977 9.48616 0 8.89166 0 8.20557C0 7.37549 0.466082 6.68599 1.08548 6.16636C1.70712 5.64485 2.55471 5.22808 3.52013 4.92164C3.91494 4.79633 4.33657 5.01479 4.46189 5.40959C4.5872 5.80439 4.36874 6.22603 3.97394 6.35135C3.12334 6.62134 2.4724 6.96078 2.04954 7.31553C1.62442 7.67217 1.5 7.97899 1.5 8.20557C1.5 8.39536 1.58476 8.6353 1.85895 8.91891C2.13663 9.20613 2.57464 9.49905 3.17409 9.76131C4.37076 10.2848 6.07639 10.6274 8 10.6274C8.88475 10.6274 9.72732 10.5549 10.4976 10.424C10.906 10.3547 11.2933 10.6295 11.3626 11.0378Z"
      fill="#817d8f"></path>
    <path fill-rule="nonzero" clip-rule="nonzero"
      d="M4.87192 13.6303C5.12286 13.7752 5.6009 13.8041 6.37095 13.3949C6.73673 13.2005 7.19082 13.3395 7.38519 13.7052C7.57957 14.071 7.44062 14.5251 7.07484 14.7195C6.13079 15.2211 5.04121 15.4601 4.12192 14.9293C3.20003 14.3971 2.86282 13.3296 2.82687 12.2575C2.81299 11.8435 3.13733 11.4967 3.55131 11.4828C3.96529 11.4689 4.31215 11.7932 4.32603 12.2072C4.35541 13.0834 4.62023 13.485 4.87192 13.6303ZM3.98778 9.49712C3.59944 9.35301 3.40145 8.92138 3.54556 8.53304C3.84786 7.71839 4.24274 6.8763 4.72548 6.04018C5.76571 4.23845 7.04361 2.75996 8.29806 1.83609C8.92431 1.37487 9.57441 1.02999 10.211 0.870901C10.8524 0.71059 11.5278 0.729863 12.1219 1.07291C12.8408 1.48795 13.2049 2.23634 13.3452 3.03257C13.486 3.83168 13.4232 4.77409 13.2058 5.7634C13.1169 6.16796 12.7169 6.42388 12.3124 6.33501C11.9078 6.24613 11.6519 5.84612 11.7408 5.44155C11.9322 4.56992 11.9637 3.83647 11.868 3.29288C11.7717 2.7464 11.5681 2.48524 11.3719 2.37195C11.2076 2.27705 10.9574 2.23049 10.5747 2.32614C10.1871 2.42301 9.71442 2.65588 9.18757 3.04388C8.13584 3.81846 6.98632 5.12428 6.02452 6.79018C5.58214 7.55639 5.22369 8.32235 4.95185 9.0549C4.80774 9.44323 4.37611 9.64122 3.98778 9.49712Z"
      fill="#817d8f"></path>
    <path
      d="M9.45925 8.06618C9.45925 8.81694 8.85063 9.42556 8.09987 9.42556C7.34911 9.42556 6.7405 8.81694 6.7405 8.06618C6.7405 7.31542 7.34911 6.70681 8.09987 6.70681C8.85063 6.70681 9.45925 7.31542 9.45925 8.06618Z"
      fill="#817d8f"></path>
  </symbol>

  <symbol fill="#817d8f" version="1.1" xmlns="http://www.w3.org/2000/svg" viewBox="0 0 32 32" id="mongodb">

    <path
      d="M15.821 23.185s0-10.361 0.344-10.36c0.266 0 0.612 13.365 0.612 13.365-0.476-0.056-0.956-2.199-0.956-3.005zM22.489 12.945c-0.919-4.016-2.932-7.469-5.708-10.134l-0.007-0.006c-0.338-0.516-0.647-1.108-0.895-1.732l-0.024-0.068c0.001 0.020 0.001 0.044 0.001 0.068 0 0.565-0.253 1.070-0.652 1.409l-0.003 0.002c-3.574 3.034-5.848 7.505-5.923 12.508l-0 0.013c-0.001 0.062-0.001 0.135-0.001 0.208 0 4.957 2.385 9.357 6.070 12.115l0.039 0.028 0.087 0.063q0.241 1.784 0.412 3.576h0.601c0.166-1.491 0.39-2.796 0.683-4.076l-0.046 0.239c0.396-0.275 0.742-0.56 1.065-0.869l-0.003 0.003c2.801-2.597 4.549-6.297 4.549-10.404 0-0.061-0-0.121-0.001-0.182l0 0.009c-0.003-0.981-0.092-1.94-0.261-2.871l0.015 0.099z">
    </path>
  </symbol>

  <svg width="0" height="0" class="hidden">
  <symbol fill="none" xmlns="http://www.w3.org/2000/svg" viewBox="0 0 32 32" id="phone">
    <path d="M23.6095 16.3906C23.4857 16.2667 23.3388 16.1684 23.177 16.1013C23.0153 16.0342 22.8419 15.9997 22.6668 15.9997C22.4917 15.9997 22.3183 16.0342 22.1565 16.1013C21.9948 16.1684 21.8478 16.2667 21.7241 16.3906L19.5988 18.516C18.6135 18.2226 16.7748 17.556 15.6095 16.3906C14.4441 15.2253 13.7775 13.3866 13.4841 12.4013L15.6095 10.276C15.7334 10.1523 15.8317 10.0053 15.8988 9.84357C15.9659 9.68182 16.0004 9.50843 16.0004 9.33332C16.0004 9.15821 15.9659 8.98481 15.8988 8.82306C15.8317 8.66131 15.7334 8.51437 15.6095 8.39065L10.2761 3.05732C10.1524 2.93339 10.0055 2.83507 9.84371 2.76799C9.68196 2.70091 9.50856 2.66638 9.33345 2.66638C9.15834 2.66638 8.98495 2.70091 8.82319 2.76799C8.66144 2.83507 8.5145 2.93339 8.39079 3.05732L4.77479 6.67332C4.26812 7.17998 3.98279 7.87598 3.99345 8.58665C4.02412 10.4853 4.52679 17.08 9.72412 22.2773C14.9215 27.4746 21.5161 27.976 23.4161 28.008H23.4535C24.1575 28.008 24.8228 27.7306 25.3268 27.2266L28.9428 23.6106C29.0667 23.4869 29.165 23.34 29.2321 23.1782C29.2992 23.0165 29.3337 22.8431 29.3337 22.668C29.3337 22.4929 29.2992 22.3195 29.2321 22.1577C29.165 21.996 29.0667 21.849 28.9428 21.7253L23.6095 16.3906ZM23.4401 25.34C21.7761 25.312 16.0828 24.8653 11.6095 20.3906C7.12145 15.9026 6.68679 10.1893 6.66012 8.55865L9.33345 5.88532L12.7815 9.33332L11.0575 11.0573C10.9007 11.2139 10.7855 11.4071 10.7222 11.6194C10.6589 11.8317 10.6495 12.0565 10.6948 12.2733C10.7268 12.4266 11.5095 16.0626 13.7228 18.276C15.9361 20.4893 19.5721 21.272 19.7255 21.304C19.9422 21.3506 20.1672 21.3419 20.3796 21.2788C20.5921 21.2156 20.7853 21.1 20.9415 20.9426L22.6668 19.2186L26.1148 22.6666L23.4401 25.34Z" fill="black"></path>
  </symbol>

  <svg width="0" height="0" class="hidden">
  <symbol fill="none" xmlns="http://www.w3.org/2000/svg" viewBox="0 0 32 32" id="mail">
    <path d="M26.667 5.33337H5.33366C3.86299 5.33337 2.66699 6.52937 2.66699 8.00004V24C2.66699 25.4707 3.86299 26.6667 5.33366 26.6667H26.667C28.1377 26.6667 29.3337 25.4707 29.3337 24V8.00004C29.3337 6.52937 28.1377 5.33337 26.667 5.33337ZM26.667 8.00004V8.68137L16.0003 16.9787L5.33366 8.68271V8.00004H26.667ZM5.33366 24V12.0587L15.1817 19.7187C15.4151 19.9021 15.7034 20.0018 16.0003 20.0018C16.2972 20.0018 16.5855 19.9021 16.819 19.7187L26.667 12.0587L26.6697 24H5.33366Z" fill="black"></path>
  </symbol>
 <symbol fill="none" xmlns="http://www.w3.org/2000/svg" viewBox="0 0 24 24" id="close">
    <path
      d="M4.918 4.052a1.265 1.265 0 0 0-.812.706c-.123.272-.117.754.013 1.022.076.157.736.841 3.098 3.21L10.218 12l-3.001 3.01c-2.362 2.369-3.022 3.053-3.098 3.21-.131.269-.136.75-.012 1.025.12.264.345.495.607.624.31.152.767.157 1.066.012.157-.076.841-.736 3.21-3.098L12 13.782l3.01 3.001c2.369 2.362 3.053 3.022 3.21 3.098.299.145.756.14 1.066-.012.262-.129.487-.36.607-.624.124-.275.119-.756-.012-1.025-.076-.157-.736-.841-3.098-3.21L13.782 12l3.001-3.01c2.362-2.369 3.022-3.053 3.098-3.21.145-.299.14-.756-.012-1.066a1.326 1.326 0 0 0-.624-.607c-.275-.124-.756-.119-1.025.012-.157.076-.841.736-3.21 3.098L12 10.218 8.99 7.217C6.706 4.94 5.935 4.195 5.793 4.127a1.45 1.45 0 0 0-.875-.075"
      fill-rule="evenodd" fill="#fff"></path>
  </symbol>

    <symbol fill="none" xmlns="http://www.w3.org/2000/svg" viewBox="0 0 24 24" id="list-menu">
    <path
      d="M3.291 4.844c-.262.101-.545.373-.673.647a1.312 1.312 0 0 0 0 1.018c.131.282.41.546.685.649.22.082.234.082 8.697.082s8.477 0 8.697-.082c.275-.103.554-.367.685-.649a1.312 1.312 0 0 0 0-1.018 1.339 1.339 0 0 0-.685-.649c-.22-.082-.232-.082-8.709-.08-8.398.002-8.49.003-8.697.082m0 6c-.262.101-.545.373-.673.647a1.312 1.312 0 0 0 0 1.018c.131.282.41.546.685.649.22.082.234.082 8.697.082s8.477 0 8.697-.082c.275-.103.554-.367.685-.649.076-.163.097-.275.097-.509 0-.234-.021-.346-.097-.509a1.339 1.339 0 0 0-.685-.649c-.22-.082-.232-.082-8.709-.08-8.398.002-8.49.003-8.697.082m0 6c-.262.101-.545.373-.673.647a1.312 1.312 0 0 0 0 1.018c.131.282.41.546.685.649.22.082.234.082 8.697.082s8.477 0 8.697-.082c.275-.103.554-.367.685-.649.076-.163.097-.275.097-.509 0-.234-.021-.346-.097-.509a1.339 1.339 0 0 0-.685-.649c-.22-.082-.232-.082-8.709-.08-8.398.002-8.49.003-8.697.082"
      fill-rule="evenodd" fill="#fff"></path>
  </symbol>
<svg width="1" height="0" class="hidden">
  <symbol fill="none" xmlns="http://www.w3.org/2000/svg" viewBox="0 0 36 8" id="arrow">
    <path d="M35.8536 4.35356C36.0488 4.15829 36.0488 3.84171 35.8536 3.64645L32.6716 0.464469C32.4763 0.269207 32.1597 0.269207 31.9645 0.464469C31.7692 0.659731 31.7692 0.976313 31.9645 1.17158L34.7929 4L31.9645 6.82843C31.7692 7.02369 31.7692 7.34027 31.9645 7.53554C32.1597 7.7308 32.4763 7.7308 32.6716 7.53554L35.8536 4.35356ZM0.5 4.5L35.5 4.5L35.5 3.5L0.5 3.5L0.5 4.5Z" fill="white"></path>
  </symbol>
</svg>
    <symbol fill="none" xmlns="http://www.w3.org/2000/svg" viewBox="0 0 39 38" id="twitter">
    <path
      d="M18.395.037c-.125.015-.549.059-.942.098-3.272.327-6.479 1.618-9.325 3.752-.926.695-2.719 2.471-3.393 3.361-1.714 2.264-2.784 4.476-3.427 7.085-.376 1.527-.525 2.792-.527 4.461-.003 3.04.629 5.72 1.99 8.441.944 1.887 2.029 3.382 3.564 4.907 3.055 3.038 6.83 4.851 11.183 5.371.896.107 3.234.107 4.095 0 5.586-.694 10.306-3.53 13.447-8.081 3.283-4.756 4.169-10.892 2.371-16.421C35.172 6.068 29.216 1.127 21.938.159c-.695-.093-3.085-.174-3.543-.122M24.93 10.37c.262.068.614.25 1.085.561.384.253.731.5.772.55.168.203.906.032 2.025-.471.845-.38.86-.378.689.089-.169.458-.595 1.114-.992 1.527-.163.17-.261.308-.217.307.044-.001.45-.128.901-.281.776-.265.824-.273.894-.161.063.101.023.174-.27.493-.425.461-.989.988-1.255 1.171l-.2.138-.075 1.129c-.175 2.633-.74 4.598-1.842 6.404-1.646 2.698-4.719 4.59-8.277 5.096-.843.12-2.7.101-3.598-.036-1.126-.172-2.316-.476-2.996-.766-.785-.334-1.737-.812-1.79-.898-.028-.045.27-.067.896-.067.551 0 1.176-.041 1.515-.1 1.314-.228 2.884-.808 3.405-1.258l.228-.197-.24-.002c-.497-.006-1.785-.569-2.383-1.041-.431-.341-.938-1.027-1.122-1.515-.077-.207-.127-.389-.111-.406.016-.016.276.001.577.038.351.042.642.044.808.005.167-.039.206-.063.108-.067-.083-.004-.417-.144-.74-.311-1.33-.686-2.202-1.98-2.307-3.417-.043-.589-.047-.586.557-.34.487.197 1.18.366 1.18.287 0-.031-.23-.285-.511-.563-.819-.809-1.241-1.831-1.243-3.009-.001-.34.045-.72.118-.983.116-.42.424-1.031.519-1.031.027 0 .238.193.469.43 1.626 1.662 3.572 2.786 5.954 3.439.809.221 2.289.518 2.339.468.015-.015-.005-.25-.043-.523-.118-.855.097-1.896.555-2.684.102-.175.392-.525.645-.779.381-.381.59-.526 1.208-.832.553-.273.858-.384 1.17-.424.68-.086 1.181-.077 1.595.03"
      fill="black"></path>
  </symbol>
<svg width="0" height="0" class="hidden">
  <symbol fill="none" xmlns="http://www.w3.org/2000/svg" viewBox="0 0 100 116" id="logo">
    <path d="M35.1719 106.915L50 115.476L71.7935 102.895L35.1719 66.2656V106.915ZM40.5953 79.3602L62.9641 101.729L50.0077 109.208L40.603 103.777V79.3602H40.5953Z" fill="black"></path>
    <path d="M35.1719 8.56084V49.2021L71.7935 12.5805L50 0L35.1719 8.56084ZM40.5953 36.1077V11.6907L50 6.25952L62.9641 13.7388L40.5953 36.1077Z" fill="black"></path>
    <path d="M21.6094 16.3945L0 28.8676V86.6001L21.6094 99.0809V16.3945ZM16.186 89.6915L5.41577 83.478V32.0051L16.186 25.7916V89.6992V89.6915Z" fill="black"></path>
    <path d="M45.8202 57.7325C58.5311 70.4434 71.2421 83.1544 83.953 95.8654L100.001 86.5987V81.3517C92.1304 73.4812 84.2522 65.603 76.3817 57.7325C84.2522 49.8619 92.1304 41.9838 100.001 34.1133V28.8662C94.6465 25.7748 89.2998 22.691 83.9454 19.5996C71.2344 32.3106 58.5235 45.0215 45.8125 57.7325H45.8202ZM94.5008 31.95C85.9092 40.5416 77.3099 49.1409 68.7183 57.7325C77.3176 66.3317 85.9092 74.9234 94.5008 83.515L84.8505 89.0841C74.3949 78.6284 63.9469 68.1805 53.4912 57.7249C63.9469 47.2769 74.3949 36.8212 84.8505 26.3655L94.5084 31.9423L94.5008 31.95Z" fill="black"></path>
  </symbol>
</svg>

</svg>