<svg width="0" height="0" class="hidden">
  <symbol fill="none" xmlns="http://www.w3.org/2000/svg" viewBox="0 0 24 24" id="red-icon">
    <path d="M0 3.84C0 1.71923 1.71923 0 3.84 0H20.16C22.2808 0 24 1.71923 24 3.84V20.16C24 22.2808 22.2808 24 20.16 24H3.84C1.71923 24 0 22.2808 0 20.16V3.84Z" fill="#E74969"></path>
    <path fill-rule="evenodd" clip-rule="evenodd" d="M13.7139 16.5223C14.7573 16.7482 15.6862 16.9493 15.6862 17.8757C15.6862 18.6577 15.0042 19.0857 13.8242 19.0857C12.6552 19.0857 12.0342 18.4627 11.9732 17.5337H10.5117C10.5602 18.9512 11.4492 20.4172 13.7507 20.4172C15.8207 20.4172 17.1847 19.3907 17.1847 17.8147C17.1847 15.8217 15.5779 15.4611 14.2101 15.1541C13.1963 14.9266 12.3137 14.7285 12.3137 13.9172C12.3137 13.1472 12.9347 12.7197 13.9452 12.7197C15.0532 12.7197 15.6257 13.4037 15.6377 14.2592H17.0867C17.0502 12.6342 15.9782 11.3877 13.9447 11.3877C12.0207 11.3877 10.8517 12.5732 10.8517 13.9537C10.8517 15.9027 12.3768 16.2328 13.7139 16.5223ZM20.4552 18.5662H18.6037V20.4177H20.4552V18.5662Z" fill="white"></path>
  </symbol>
  <symbol fill="none" xmlns="http://www.w3.org/2000/svg" viewBox="0 0 32 32" id="green-icon">
    <rect width="32" height="32" rx="16" fill="#36B37E"></rect>
    <path d="M19.043 12.457C17.5664 12.457 16.3633 11.5 14.5312 11.5C13.8477 11.5 13.2461 11.6367 12.6719 11.8555C12.7266 11.6914 12.7812 11.4453 12.7812 11.3086C12.7812 11.2812 12.7539 11.2266 12.7539 11.1992C12.7266 10.4336 12.0703 9.80469 11.3047 9.77734C10.4297 9.72266 9.71875 10.4336 9.71875 11.2812C9.71875 11.8281 9.96484 12.2656 10.375 12.5391V23.0938C10.375 23.4766 10.6484 23.75 11.0312 23.75H11.4688C11.8242 23.75 12.125 23.4766 12.125 23.0938V20.5234C12.8906 20.1953 13.8477 19.9219 15.2422 19.9219C16.7188 19.9219 17.9219 20.8789 19.7539 20.8789C21.0664 20.8789 22.1328 20.4141 23.1172 19.7578C23.3359 19.5938 23.5 19.3203 23.5 19.0469V12.375C23.5 11.7461 22.8164 11.3359 22.2422 11.582C21.3125 12.0195 20.1641 12.457 19.043 12.457Z" fill="white"></path>
  </symbol>

  <symbol fill="none" xmlns="http://www.w3.org/2000/svg" viewBox="0 0 32 32" id="blue-icon">
    <rect width="32" height="32" rx="16" fill="#3F598A"></rect>
    <path d="M19.043 12.457C17.5664 12.457 16.3633 11.5 14.5312 11.5C13.8477 11.5 13.2461 11.6367 12.6719 11.8555C12.7266 11.6914 12.7812 11.4453 12.7812 11.3086C12.7812 11.2812 12.7539 11.2266 12.7539 11.1992C12.7266 10.4336 12.0703 9.80469 11.3047 9.77734C10.4297 9.72266 9.71875 10.4336 9.71875 11.2812C9.71875 11.8281 9.96484 12.2656 10.375 12.5391V23.0938C10.375 23.4766 10.6484 23.75 11.0312 23.75H11.4688C11.8242 23.75 12.125 23.4766 12.125 23.0938V20.5234C12.8906 20.1953 13.8477 19.9219 15.2422 19.9219C16.7188 19.9219 17.9219 20.8789 19.7539 20.8789C21.0664 20.8789 22.1328 20.4141 23.1172 19.7578C23.3359 19.5938 23.5 19.3203 23.5 19.0469V12.375C23.5 11.7461 22.8164 11.3359 22.2422 11.582C21.3125 12.0195 20.1641 12.457 19.043 12.457Z" fill="white"></path>
  </symbol>

  <symbol fill="none" xmlns="http://www.w3.org/2000/svg" viewBox="0 0 24 24" id="small-gr-icon">
    <rect width="24" height="24" rx="12" fill="#36B37E"></rect>
    <path d="M13.8164 10.1836C12.7617 10.1836 11.9023 9.5 10.5938 9.5C10.1055 9.5 9.67578 9.59766 9.26562 9.75391C9.30469 9.63672 9.34375 9.46094 9.34375 9.36328C9.34375 9.34375 9.32422 9.30469 9.32422 9.28516C9.30469 8.73828 8.83594 8.28906 8.28906 8.26953C7.66406 8.23047 7.15625 8.73828 7.15625 9.34375C7.15625 9.73438 7.33203 10.0469 7.625 10.2422V17.7812C7.625 18.0547 7.82031 18.25 8.09375 18.25H8.40625C8.66016 18.25 8.875 18.0547 8.875 17.7812V15.9453C9.42188 15.7109 10.1055 15.5156 11.1016 15.5156C12.1562 15.5156 13.0156 16.1992 14.3242 16.1992C15.2617 16.1992 16.0234 15.8672 16.7266 15.3984C16.8828 15.2812 17 15.0859 17 14.8906V10.125C17 9.67578 16.5117 9.38281 16.1016 9.55859C15.4375 9.87109 14.6172 10.1836 13.8164 10.1836Z" fill="white"></path>
  </symbol>

    <symbol fill="none" xmlns="http://www.w3.org/2000/svg" viewBox="0 0 24 24" id="small-sc-icon">
    <rect width="24" height="24" rx="12" fill="#3F598A"></rect>
    <path d="M13.8164 10.1836C12.7617 10.1836 11.9023 9.5 10.5938 9.5C10.1055 9.5 9.67578 9.59766 9.26562 9.75391C9.30469 9.63672 9.34375 9.46094 9.34375 9.36328C9.34375 9.34375 9.32422 9.30469 9.32422 9.28516C9.30469 8.73828 8.83594 8.28906 8.28906 8.26953C7.66406 8.23047 7.15625 8.73828 7.15625 9.34375C7.15625 9.73438 7.33203 10.0469 7.625 10.2422V17.7812C7.625 18.0547 7.82031 18.25 8.09375 18.25H8.40625C8.66016 18.25 8.875 18.0547 8.875 17.7812V15.9453C9.42188 15.7109 10.1055 15.5156 11.1016 15.5156C12.1562 15.5156 13.0156 16.1992 14.3242 16.1992C15.2617 16.1992 16.0234 15.8672 16.7266 15.3984C16.8828 15.2812 17 15.0859 17 14.8906V10.125C17 9.67578 16.5117 9.38281 16.1016 9.55859C15.4375 9.87109 14.6172 10.1836 13.8164 10.1836Z" fill="white"></path>
  </symbol>
   <symbol fill="none" xmlns="http://www.w3.org/2000/svg" viewBox="0 0 24 24" id="small-pr-icon">
    <rect width="24" height="24" rx="12" fill="#1565D8"></rect>
    <path d="M13.8164 10.1836C12.7617 10.1836 11.9023 9.5 10.5938 9.5C10.1055 9.5 9.67578 9.59766 9.26562 9.75391C9.30469 9.63672 9.34375 9.46094 9.34375 9.36328C9.34375 9.34375 9.32422 9.30469 9.32422 9.28516C9.30469 8.73828 8.83594 8.28906 8.28906 8.26953C7.66406 8.23047 7.15625 8.73828 7.15625 9.34375C7.15625 9.73438 7.33203 10.0469 7.625 10.2422V17.7812C7.625 18.0547 7.82031 18.25 8.09375 18.25H8.40625C8.66016 18.25 8.875 18.0547 8.875 17.7812V15.9453C9.42188 15.7109 10.1055 15.5156 11.1016 15.5156C12.1562 15.5156 13.0156 16.1992 14.3242 16.1992C15.2617 16.1992 16.0234 15.8672 16.7266 15.3984C16.8828 15.2812 17 15.0859 17 14.8906V10.125C17 9.67578 16.5117 9.38281 16.1016 9.55859C15.4375 9.87109 14.6172 10.1836 13.8164 10.1836Z" fill="white"></path>
  </symbol>
    <symbol fill="none" xmlns="http://www.w3.org/2000/svg" viewBox="0 0 32 32" id="primary-icon">
    <rect width="32" height="32" rx="16" fill="#1565D8"></rect>
    <path d="M19.043 12.457C17.5664 12.457 16.3633 11.5 14.5312 11.5C13.8477 11.5 13.2461 11.6367 12.6719 11.8555C12.7266 11.6914 12.7812 11.4453 12.7812 11.3086C12.7812 11.2812 12.7539 11.2266 12.7539 11.1992C12.7266 10.4336 12.0703 9.80469 11.3047 9.77734C10.4297 9.72266 9.71875 10.4336 9.71875 11.2812C9.71875 11.8281 9.96484 12.2656 10.375 12.5391V23.0938C10.375 23.4766 10.6484 23.75 11.0312 23.75H11.4688C11.8242 23.75 12.125 23.4766 12.125 23.0938V20.5234C12.8906 20.1953 13.8477 19.9219 15.2422 19.9219C16.7188 19.9219 17.9219 20.8789 19.7539 20.8789C21.0664 20.8789 22.1328 20.4141 23.1172 19.7578C23.3359 19.5938 23.5 19.3203 23.5 19.0469V12.375C23.5 11.7461 22.8164 11.3359 22.2422 11.582C21.3125 12.0195 20.1641 12.457 19.043 12.457Z" fill="white"></path>
  </symbol>
    <symbol fill="none" xmlns="http://www.w3.org/2000/svg" viewBox="0 0 77 31" id="three-dots">
    <path fill-rule="evenodd" clip-rule="evenodd" d="M4 8C6.20914 8 8 6.20914 8 4C8 1.79086 6.20914 0 4 0C1.79086 0 0 1.79086 0 4C0 6.20914 1.79086 8 4 8Z" fill="#00B8D9"></path>
    <path fill-rule="evenodd" clip-rule="evenodd" d="M4 31C6.20914 31 8 29.2091 8 27C8 24.7909 6.20914 23 4 23C1.79086 23 0 24.7909 0 27C0 29.2091 1.79086 31 4 31Z" fill="#00B8D9"></path>
    <path fill-rule="evenodd" clip-rule="evenodd" d="M27 8C29.2091 8 31 6.20914 31 4C31 1.79086 29.2091 0 27 0C24.7909 0 23 1.79086 23 4C23 6.20914 24.7909 8 27 8Z" fill="#00B8D9"></path>
    <path fill-rule="evenodd" clip-rule="evenodd" d="M27 31C29.2091 31 31 29.2091 31 27C31 24.7909 29.2091 23 27 23C24.7909 23 23 24.7909 23 27C23 29.2091 24.7909 31 27 31Z" fill="#00B8D9"></path>
    <path fill-rule="evenodd" clip-rule="evenodd" d="M50 8C52.2091 8 54 6.20914 54 4C54 1.79086 52.2091 0 50 0C47.7909 0 46 1.79086 46 4C46 6.20914 47.7909 8 50 8Z" fill="#00B8D9"></path>
    <path fill-rule="evenodd" clip-rule="evenodd" d="M50 31C52.2091 31 54 29.2091 54 27C54 24.7909 52.2091 23 50 23C47.7909 23 46 24.7909 46 27C46 29.2091 47.7909 31 50 31Z" fill="#00B8D9"></path>
    <path fill-rule="evenodd" clip-rule="evenodd" d="M73 8C75.2091 8 77 6.20914 77 4C77 1.79086 75.2091 0 73 0C70.7909 0 69 1.79086 69 4C69 6.20914 70.7909 8 73 8Z" fill="#00B8D9"></path>
    <path fill-rule="evenodd" clip-rule="evenodd" d="M73 31C75.2091 31 77 29.2091 77 27C77 24.7909 75.2091 23 73 23C70.7909 23 69 24.7909 69 27C69 29.2091 70.7909 31 73 31Z" fill="#00B8D9"></path>
  </symbol>
    <symbol fill="none" xmlns="http://www.w3.org/2000/svg" viewBox="0 0 9 7" id="angle-down">
    <path d="M4.03516 6.40234C4.28125 6.64844 4.69141 6.64844 4.9375 6.40234L8.65625 2.68359C8.92969 2.41016 8.92969 2 8.65625 1.75391L8.05469 1.125C7.78125 0.878906 7.37109 0.878906 7.125 1.125L4.47266 3.77734L1.84766 1.125C1.60156 0.878906 1.19141 0.878906 0.917969 1.125L0.316406 1.75391C0.0429688 2 0.0429688 2.41016 0.316406 2.68359L4.03516 6.40234Z" fill="#183B56"></path>
  </symbol>
  

  
</svg>